<svg version="1.1" id="Calque_1" xmlns="http://www.w3.org/2000/svg" xmlns:xlink="http://www.w3.org/1999/xlink" x="0px" y="0px"
	 viewBox="0 0 1920 1080" style="enable-background:new 0 0 1920 1080;" xml:space="preserve">

<defs>

</defs>
	<style type="text/css">
	.st0{
		stroke-dasharray:5000;
		stroke-dashoffset:0;
		-webkit-animation: dash 2s linear forwards;
		-o-animation: dash 2s linear forwards;
		-moz-animation: dash 2s linear forwards;
		animation: dash 2s linear forwards;


		fill:none;
		stroke:url(#SVGID_1_);
		stroke-width:5.8338;
		stroke-miterlimit:10;
	}

	@-webkit-keyframes dash {
		from{
			stroke-dashoffset: 5000;
		}
		to{
			stroke-dashoffset: 0;
		}
	}

</style>
<g>
	<linearGradient id="SVGID_1_" gradientUnits="userSpaceOnUse" x1="-623.1951" y1="1401.7515" x2="1886.1158" y2="1401.7515">
		<stop  offset="0" style="stop-color:#00f4ff"/>
		<stop  offset="1" style="stop-color:#00d3ff00"/>
	</linearGradient>
	<path class="st0" d="M1884.032,1474.083c-131.56,134.371-442.379,312.386-576.577,238.139
		c-132.265-73.391-159.24-78.368-319.063-217.15c-2.806-2.437-5.832-4.658-8.653-7.163
		c-163.805-145.474-145.692-70.481-215.857,3.568c-72.035,76.023-243.401,40.325-231.918-65.251
		c10.559-97.083,225.528-33.577,174.791-110.934c-4.553-6.942-10.033-14.569-16.498-23.381
		c-37.235-50.756-80.408-96.635-204.436-138.829c-174.029-59.609-438.428-95.3-508.749-72.168
		c-72.88,23.974-148.731,133.456-241.308,226.915c-52.032,52.527-90.272,96.358-98.75,105.147
		c-21.225,22.004-200.875,142.04-258.145,84.616"/>
	<linearGradient id="SVGID_2_" gradientUnits="userSpaceOnUse" x1="-606.3982" y1="1390.5485" x2="1900.5278" y2="1390.5485">
		<stop  offset="0" style="stop-color:#E4AE63"/>
		<stop  offset="1" style="stop-color:#D37165"/>
	</linearGradient>
	<path class="st0" d="M1898.446,1462.809c-131.654,134.164-441.895,311.959-575.949,237.68
		c-132.125-73.424-159.168-78.523-318.926-216.952c-2.807-2.432-5.833-4.646-8.653-7.145
		c-163.714-145.097-145.516-70.103-215.342,3.924c-71.682,75.994-242.986,40.301-231.736-65.13
		c10.343-96.934,224.684-33.634,174.053-110.895c-4.549-6.941-10.015-14.564-16.456-23.371
		c-37.109-50.74-79.772-96.543-203.733-138.703c-173.88-59.546-438.539-95.157-508.758-71.967
		c-72.771,24.033-148.186,133.363-240.718,226.747c-51.971,52.45-90.17,96.216-98.669,105.003
		c-21.271,21.993-200.623,141.767-257.892,84.421"/>
	<linearGradient id="SVGID_3_" gradientUnits="userSpaceOnUse" x1="-589.8077" y1="1379.1168" x2="1914.7334" y2="1379.1168">
		<stop  offset="0" style="stop-color:#E4AD63"/>
		<stop  offset="1" style="stop-color:#D37065"/>
	</linearGradient>
	<path class="st0" d="M1912.654,1451.307c-131.748,133.957-441.411,311.532-575.321,237.222
		c-131.984-73.457-159.096-78.679-318.789-216.754c-2.807-2.427-5.834-4.634-8.654-7.128
		c-163.623-144.719-145.339-69.726-214.828,4.279c-71.329,75.965-242.572,40.277-231.555-65.009
		c10.127-96.784,223.841-33.691,173.316-110.856c-4.544-6.94-9.997-14.559-16.414-23.361
		c-36.982-50.723-79.136-96.451-203.03-138.578c-173.731-59.484-438.65-95.014-508.768-71.765
		c-72.663,24.093-147.64,133.269-240.128,226.578c-51.911,52.372-90.069,96.073-98.589,104.858
		c-21.317,21.981-200.372,141.494-257.639,84.225"/>
	<linearGradient id="SVGID_4_" gradientUnits="userSpaceOnUse" x1="-573.4277" y1="1367.4562" x2="1928.7285" y2="1367.4562">
		<stop  offset="0" style="stop-color:#E4AD63"/>
		<stop  offset="1" style="stop-color:#D37065"/>
	</linearGradient>
	<path class="st0" d="M1926.651,1439.576c-131.843,133.749-440.927,311.105-574.693,236.763
		c-131.844-73.491-159.024-78.834-318.651-216.556c-2.807-2.422-5.835-4.622-8.655-7.11
		c-163.532-144.342-145.163-69.349-214.314,4.634c-70.976,75.935-242.158,40.253-231.374-64.888
		c9.911-96.635,222.998-33.748,172.578-110.817c-4.54-6.939-9.979-14.554-16.373-23.35c-36.855-50.706-78.5-96.358-202.327-138.453
		c-173.582-59.421-438.761-94.87-508.778-71.563c-72.555,24.152-147.095,133.176-239.538,226.409
		c-51.851,52.295-89.967,95.93-98.508,104.714c-21.364,21.97-200.12,141.221-257.386,84.029"/>
	<linearGradient id="SVGID_5_" gradientUnits="userSpaceOnUse" x1="-557.2621" y1="1355.5665" x2="1942.5093" y2="1355.5665">
		<stop  offset="0" style="stop-color:#E4AD63"/>
		<stop  offset="1" style="stop-color:#D37065"/>
	</linearGradient>
	<path class="st0" d="M1940.434,1427.616c-131.937,133.542-440.444,310.678-574.064,236.304
		c-131.703-73.524-158.952-78.989-318.514-216.358c-2.807-2.417-5.836-4.61-8.656-7.093c-163.441-143.965-144.986-68.972-213.8,4.99
		c-70.622,75.906-241.743,40.229-231.193-64.767c9.695-96.486,222.155-33.805,171.841-110.778
		c-4.535-6.938-9.962-14.549-16.331-23.34c-36.729-50.69-77.864-96.266-201.623-138.328
		c-173.433-59.358-438.872-94.727-508.788-71.362c-72.447,24.212-146.55,133.082-238.947,226.241
		c-51.791,52.217-89.866,95.788-98.428,104.569c-21.41,21.959-199.869,140.948-257.134,83.833"/>
	<linearGradient id="SVGID_6_" gradientUnits="userSpaceOnUse" x1="-541.3147" y1="1343.4475" x2="1956.0718" y2="1343.4475">
		<stop  offset="0" style="stop-color:#E4AD63"/>
		<stop  offset="1" style="stop-color:#D37065"/>
	</linearGradient>
	<path class="st0" d="M1953.999,1415.427c-132.031,133.335-439.96,310.25-573.436,235.846
		c-131.563-73.557-158.88-79.145-318.377-216.16c-2.807-2.412-5.837-4.598-8.656-7.076
		c-163.35-143.587-144.809-68.596-213.285,5.345c-70.268,75.876-241.329,40.205-231.012-64.646
		c9.479-96.336,221.312-33.863,171.103-110.739c-4.531-6.937-9.944-14.544-16.289-23.329
		c-36.602-50.673-77.228-96.173-200.92-138.203c-173.284-59.295-438.983-94.584-508.797-71.16
		c-72.339,24.271-146.004,132.988-238.357,226.072c-51.731,52.14-89.764,95.645-98.347,104.425
		c-21.456,21.948-199.617,140.675-256.881,83.637"/>
	<linearGradient id="SVGID_7_" gradientUnits="userSpaceOnUse" x1="-525.5895" y1="1331.0989" x2="1969.4121" y2="1331.0989">
		<stop  offset="0" style="stop-color:#E4AD63"/>
		<stop  offset="1" style="stop-color:#D27065"/>
	</linearGradient>
	<path class="st0" d="M1967.342,1403.008c-132.125,133.127-439.476,309.823-572.808,235.387
		c-131.422-73.59-158.809-79.3-318.24-215.962c-2.807-2.406-5.838-4.586-8.657-7.058c-163.259-143.21-144.632-68.219-212.771,5.701
		c-69.914,75.846-240.914,40.181-230.831-64.525c9.263-96.187,220.469-33.92,170.365-110.7c-4.526-6.936-9.926-14.539-16.248-23.319
		c-36.476-50.657-76.593-96.081-200.217-138.077c-173.135-59.233-439.094-94.44-508.807-70.958
		c-72.231,24.33-145.459,132.895-237.767,225.904c-51.67,52.063-89.663,95.502-98.267,104.28
		c-21.503,21.937-199.366,140.402-256.628,83.441"/>
	<linearGradient id="SVGID_8_" gradientUnits="userSpaceOnUse" x1="-510.0903" y1="1318.5205" x2="1982.5264" y2="1318.5205">
		<stop  offset="0" style="stop-color:#E4AC63"/>
		<stop  offset="1" style="stop-color:#D27065"/>
	</linearGradient>
	<path class="st0" d="M1980.458,1390.359c-132.219,132.92-438.992,309.396-572.179,234.928
		c-131.282-73.623-158.737-79.455-318.102-215.764c-2.808-2.401-5.839-4.574-8.658-7.041
		c-163.167-142.833-144.454-67.844-212.257,6.056c-69.56,75.815-240.5,40.157-230.649-64.404
		c9.047-96.037,219.626-33.977,169.628-110.661c-4.521-6.934-9.908-14.535-16.206-23.308
		c-36.349-50.641-75.957-95.989-199.514-137.952c-172.986-59.17-439.205-94.297-508.817-70.757
		c-72.123,24.389-144.914,132.801-237.177,225.735c-51.61,51.985-89.561,95.36-98.186,104.135
		c-21.549,21.926-199.114,140.129-256.375,83.246"/>
	<linearGradient id="SVGID_9_" gradientUnits="userSpaceOnUse" x1="-494.8212" y1="1305.7122" x2="1995.4105" y2="1305.7122">
		<stop  offset="0" style="stop-color:#E4AC63"/>
		<stop  offset="1" style="stop-color:#D26F64"/>
	</linearGradient>
	<path class="st0" d="M1993.345,1377.48c-132.314,132.713-438.508,308.969-571.551,234.47
		c-131.141-73.657-158.666-79.61-317.965-215.566c-2.808-2.396-5.84-4.562-8.659-7.024
		c-163.075-142.456-144.276-67.468-211.742,6.412c-69.206,75.785-240.085,40.134-230.468-64.283
		c8.832-95.887,218.783-34.034,168.89-110.621c-4.517-6.933-9.89-14.53-16.164-23.298c-36.222-50.624-75.321-95.896-198.811-137.827
		c-172.837-59.107-439.316-94.154-508.827-70.555c-72.015,24.449-144.368,132.708-236.586,225.567
		c-51.55,51.908-89.46,95.217-98.106,103.991c-21.595,21.915-198.863,139.856-256.122,83.05"/>
	<linearGradient id="SVGID_10_" gradientUnits="userSpaceOnUse" x1="-479.786" y1="1292.6735" x2="2008.0608" y2="1292.6735">
		<stop  offset="0" style="stop-color:#E4AC63"/>
		<stop  offset="1" style="stop-color:#D26F64"/>
	</linearGradient>
	<path class="st0" d="M2005.997,1364.371c-132.408,132.505-438.025,308.541-570.923,234.011
		c-131.001-73.69-158.595-79.765-317.828-215.368c-2.808-2.391-5.841-4.55-8.659-7.006
		c-162.984-142.078-144.098-67.093-211.228,6.767c-68.851,75.754-239.671,40.11-230.287-64.162
		c8.616-95.738,217.94-34.092,168.152-110.582c-4.512-6.932-9.873-14.525-16.122-23.288
		c-36.096-50.608-74.685-95.804-198.108-137.702c-172.688-59.044-439.427-94.011-508.837-70.354
		c-71.907,24.508-143.823,132.614-235.996,225.398c-51.49,51.831-89.358,95.074-98.025,103.846
		c-21.642,21.904-198.611,139.583-255.869,82.854"/>
	<linearGradient id="SVGID_11_" gradientUnits="userSpaceOnUse" x1="-464.9887" y1="1279.4043" x2="2020.4733" y2="1279.4043">
		<stop  offset="0" style="stop-color:#E4AC63"/>
		<stop  offset="1" style="stop-color:#D26F64"/>
	</linearGradient>
	<path class="st0" d="M2018.412,1351.032c-132.502,132.298-437.541,308.114-570.294,233.552
		c-130.86-73.723-158.524-79.92-317.691-215.17c-2.808-2.386-5.842-4.538-8.66-6.989c-162.892-141.701-143.92-66.718-210.714,7.123
		c-68.497,75.723-239.256,40.087-230.106-64.041c8.4-95.588,217.097-34.149,167.415-110.543c-4.508-6.931-9.855-14.52-16.081-23.277
		c-35.969-50.592-74.049-95.711-197.405-137.576c-172.539-58.982-439.538-93.867-508.846-70.152
		c-71.799,24.567-143.278,132.521-235.406,225.23c-51.429,51.753-89.257,94.932-97.945,103.702
		c-21.688,21.893-198.36,139.311-255.617,82.658"/>
	<linearGradient id="SVGID_12_" gradientUnits="userSpaceOnUse" x1="-450.4331" y1="1265.9045" x2="2032.6438" y2="1265.9045">
		<stop  offset="0" style="stop-color:#E4AC63"/>
		<stop  offset="1" style="stop-color:#D26F64"/>
	</linearGradient>
	<path class="st0" d="M2030.585,1337.462c-132.596,132.091-437.057,307.687-569.666,233.094
		c-130.72-73.756-158.453-80.075-317.553-214.972c-2.808-2.381-5.844-4.526-8.661-6.972
		c-162.799-141.324-143.742-66.343-210.2,7.478c-68.142,75.692-238.842,40.063-229.925-63.92
		c8.184-95.438,216.255-34.207,166.677-110.504c-4.503-6.93-9.837-14.515-16.039-23.267
		c-35.843-50.576-73.413-95.619-196.702-137.451c-172.39-58.919-439.649-93.724-508.856-69.951
		C67.97,975.624-3.072,1083.425-95.155,1176.059c-51.369,51.676-89.155,94.789-97.864,103.557
		c-21.734,21.882-198.108,139.038-255.364,82.462"/>
	<linearGradient id="SVGID_13_" gradientUnits="userSpaceOnUse" x1="-436.1233" y1="1252.1737" x2="2044.5687" y2="1252.1737">
		<stop  offset="0" style="stop-color:#E4AC63"/>
		<stop  offset="1" style="stop-color:#D26F64"/>
	</linearGradient>
	<path class="st0" d="M2042.512,1323.661c-132.691,131.883-436.573,307.26-569.038,232.635
		c-130.58-73.79-158.382-80.23-317.416-214.774c-2.809-2.376-5.845-4.514-8.662-6.954
		c-162.707-140.947-143.563-65.968-209.685,7.833c-67.787,75.66-238.427,40.04-229.743-63.799
		c7.969-95.288,215.412-34.264,165.939-110.465c-4.498-6.929-9.819-14.511-15.997-23.256
		c-35.716-50.559-72.777-95.527-195.999-137.326c-172.241-58.856-439.76-93.581-508.866-69.749
		C81.463,962.492,10.858,1070.14-81.18,1162.699c-51.309,51.599-89.054,94.647-97.784,103.413
		c-21.78,21.871-197.857,138.765-255.111,82.266"/>
	<linearGradient id="SVGID_14_" gradientUnits="userSpaceOnUse" x1="-422.0631" y1="1238.2118" x2="2056.2439" y2="1238.2118">
		<stop  offset="0" style="stop-color:#E4AB63"/>
		<stop  offset="1" style="stop-color:#D26F64"/>
	</linearGradient>
	<path class="st0" d="M2054.19,1309.629c-132.785,131.676-436.09,306.832-568.41,232.177
		c-130.439-73.823-158.312-80.385-317.279-214.576c-2.809-2.371-5.846-4.502-8.662-6.937
		c-162.615-140.57-143.384-65.594-209.171,8.189c-67.432,75.628-238.012,40.017-229.562-63.678
		c7.753-95.138,214.569-34.322,165.202-110.426c-4.494-6.928-9.801-14.506-15.956-23.246
		c-35.59-50.543-72.141-95.434-195.296-137.201c-172.092-58.793-439.871-93.438-508.876-69.547
		c-71.475,24.745-141.642,132.24-233.635,224.724c-51.248,51.521-88.952,94.504-97.703,103.268
		c-21.827,21.86-197.606,138.492-254.858,82.071"/>
	<linearGradient id="SVGID_15_" gradientUnits="userSpaceOnUse" x1="-408.2564" y1="1224.0184" x2="2067.6658" y2="1224.0184">
		<stop  offset="0" style="stop-color:#E3AB63"/>
		<stop  offset="1" style="stop-color:#D26E64"/>
	</linearGradient>
	<path class="st0" d="M2065.614,1295.366c-132.879,131.469-435.606,306.405-567.781,231.718
		c-130.299-73.856-158.241-80.54-317.142-214.378c-2.809-2.366-5.846-4.49-8.663-6.92c-162.522-140.193-143.205-65.22-208.657,8.544
		c-67.077,75.596-237.598,39.994-229.381-63.557c7.537-94.988,213.726-34.379,164.464-110.387
		c-4.489-6.927-9.784-14.501-15.914-23.236c-35.463-50.527-71.505-95.342-194.593-137.075
		c-171.943-58.73-439.982-93.294-508.885-69.346c-71.367,24.805-141.096,132.147-233.045,224.555
		c-51.188,51.444-88.851,94.361-97.623,103.124c-21.873,21.849-197.354,138.219-254.605,81.875"/>
	<linearGradient id="SVGID_16_" gradientUnits="userSpaceOnUse" x1="-394.7072" y1="1209.5935" x2="2078.8298" y2="1209.5935">
		<stop  offset="0" style="stop-color:#E3AB63"/>
		<stop  offset="1" style="stop-color:#D26E64"/>
	</linearGradient>
	<path class="st0" d="M2076.781,1280.871c-132.973,131.261-435.122,305.978-567.153,231.259
		c-130.158-73.889-158.171-80.694-317.004-214.18c-2.809-2.361-5.848-4.478-8.664-6.902c-162.43-139.817-143.026-64.847-208.143,8.9
		c-66.722,75.564-237.183,39.971-229.2-63.436c7.322-94.838,212.884-34.437,163.727-110.348
		c-4.485-6.926-9.766-14.496-15.872-23.225c-35.337-50.512-70.869-95.249-193.89-136.95
		c-171.793-58.668-440.093-93.151-508.895-69.144c-71.259,24.864-140.551,132.053-232.455,224.387
		c-51.128,51.367-88.749,94.219-97.542,102.979c-21.919,21.838-197.103,137.946-254.352,81.679"/>
	<linearGradient id="SVGID_17_" gradientUnits="userSpaceOnUse" x1="-381.4194" y1="1194.9366" x2="2089.7327" y2="1194.9366">
		<stop  offset="0" style="stop-color:#E3AB63"/>
		<stop  offset="1" style="stop-color:#D26E64"/>
	</linearGradient>
	<path class="st0" d="M2087.686,1266.144c-133.068,131.054-434.638,305.551-566.525,230.801
		c-130.018-73.922-158.101-80.849-316.867-213.982c-2.809-2.356-5.849-4.466-8.665-6.885
		c-162.337-139.44-142.846-64.474-207.628,9.255c-66.366,75.531-236.768,39.948-229.019-63.315
		c7.106-94.688,212.041-34.495,162.989-110.309c-4.48-6.924-9.748-14.492-15.831-23.215
		c-35.21-50.496-70.233-95.157-193.187-136.825c-171.644-58.605-440.204-93.008-508.905-68.943
		c-71.151,24.923-140.005,131.96-231.865,224.218c-51.068,51.29-88.647,94.076-97.462,102.835
		c-21.965,21.827-196.851,137.673-254.099,81.483"/>
	<linearGradient id="SVGID_18_" gradientUnits="userSpaceOnUse" x1="-368.3969" y1="1180.0479" x2="2100.3704" y2="1180.0479">
		<stop  offset="0" style="stop-color:#E3AB63"/>
		<stop  offset="1" style="stop-color:#D26E64"/>
	</linearGradient>
	<path class="st0" d="M2098.326,1251.186c-133.162,130.847-434.155,305.124-565.896,230.342
		c-129.877-73.956-158.031-81.004-316.73-213.784c-2.81-2.351-5.85-4.454-8.665-6.868
		c-162.244-139.063-142.666-64.101-207.114,9.611c-66.011,75.498-236.353,39.925-228.838-63.194
		c6.89-94.537,211.199-34.552,162.251-110.27c-4.476-6.923-9.73-14.487-15.789-23.204c-35.084-50.48-69.597-95.065-192.483-136.7
		c-171.495-58.542-440.315-92.865-508.915-68.741c-71.043,24.982-139.46,131.866-231.274,224.05
		c-51.007,51.212-88.546,93.933-97.381,102.69c-22.012,21.816-196.6,137.4-253.847,81.287"/>
	<linearGradient id="SVGID_19_" gradientUnits="userSpaceOnUse" x1="-355.6436" y1="1164.9266" x2="2110.7385" y2="1164.9266">
		<stop  offset="0" style="stop-color:#E3AA63"/>
		<stop  offset="1" style="stop-color:#D26E64"/>
	</linearGradient>
	<path class="st0" d="M2108.697,1235.995c-133.256,130.639-433.671,304.696-565.268,229.883
		c-129.737-73.989-157.961-81.158-316.592-213.586c-2.81-2.346-5.851-4.442-8.666-6.85c-162.151-138.686-142.486-63.728-206.6,9.966
		c-65.655,75.465-235.939,39.902-228.656-63.073c6.675-94.387,210.356-34.61,161.514-110.23
		c-4.471-6.922-9.712-14.482-15.747-23.194c-34.957-50.464-68.961-94.972-191.78-136.574
		c-171.346-58.479-440.426-92.721-508.925-68.54C157.041,878.838,89.061,985.569-2.709,1077.677
		c-50.947,51.135-88.444,93.791-97.301,102.546c-22.058,21.805-196.348,137.127-253.594,81.091"/>
	<linearGradient id="SVGID_20_" gradientUnits="userSpaceOnUse" x1="-343.1635" y1="1149.5729" x2="2120.8337" y2="1149.5729">
		<stop  offset="0" style="stop-color:#E3AA63"/>
		<stop  offset="1" style="stop-color:#D16E64"/>
	</linearGradient>
	<path class="st0" d="M2118.794,1220.571c-133.35,130.432-433.187,304.269-564.64,229.425
		c-129.596-74.022-157.891-81.313-316.455-213.388c-2.81-2.341-5.852-4.43-8.667-6.833
		c-162.058-138.309-142.306-63.356-206.085,10.322c-65.299,75.432-235.524,39.879-228.475-62.953
		c6.459-94.236,209.514-34.668,160.776-110.191c-4.466-6.921-9.695-14.477-15.705-23.183
		c-34.831-50.449-68.326-94.88-191.077-136.449c-171.197-58.417-440.536-92.578-508.934-68.338
		c-70.826,25.101-138.369,131.68-230.094,223.713c-50.887,51.058-88.343,93.648-97.22,102.401
		c-22.104,21.794-196.097,136.854-253.341,80.896"/>
	<linearGradient id="SVGID_21_" gradientUnits="userSpaceOnUse" x1="-330.9604" y1="1133.9865" x2="2130.6516" y2="1133.9865">
		<stop  offset="0" style="stop-color:#E3AA63"/>
		<stop  offset="1" style="stop-color:#D16D64"/>
	</linearGradient>
	<path class="st0" d="M2128.615,1204.915c-133.445,130.225-432.703,303.842-564.012,228.966
		c-129.456-74.055-157.822-81.467-316.318-213.19c-2.81-2.335-5.853-4.418-8.668-6.816
		c-161.964-137.933-142.125-62.984-205.571,10.677c-64.943,75.398-235.109,39.856-228.294-62.832
		c6.244-94.086,208.671-34.726,160.038-110.152c-4.462-6.92-9.677-14.473-15.664-23.173
		c-34.704-50.433-67.69-94.787-190.374-136.324c-171.048-58.354-440.647-92.435-508.944-68.136
		c-70.718,25.16-137.824,131.586-229.504,223.544c-50.826,50.98-88.241,93.506-97.14,102.257
		c-22.15,21.783-195.845,136.581-253.088,80.7"/>
	<linearGradient id="SVGID_22_" gradientUnits="userSpaceOnUse" x1="-319.0384" y1="1118.1669" x2="2140.1887" y2="1118.1669">
		<stop  offset="0" style="stop-color:#E3AA63"/>
		<stop  offset="1" style="stop-color:#D16D64"/>
	</linearGradient>
	<path class="st0" d="M2138.154,1189.025c-133.539,130.017-432.219,303.415-563.383,228.507
		c-129.316-74.088-157.752-81.622-316.181-212.992c-2.81-2.33-5.854-4.406-8.668-6.798
		c-161.871-137.556-141.945-62.612-205.057,11.032c-64.586,75.365-234.694,39.834-228.113-62.711
		c6.029-93.935,207.829-34.783,159.301-110.113c-4.457-6.919-9.659-14.468-15.622-23.163
		c-34.578-50.417-67.054-94.695-189.671-136.199c-170.899-58.291-440.758-92.292-508.954-67.935
		c-70.61,25.219-137.278,131.493-228.913,223.376c-50.766,50.903-88.14,93.363-97.059,102.112
		c-22.196,21.772-195.594,136.308-252.835,80.504"/>
	<linearGradient id="SVGID_23_" gradientUnits="userSpaceOnUse" x1="-307.4012" y1="1102.1143" x2="2149.4409" y2="1102.1143">
		<stop  offset="0" style="stop-color:#E3AA63"/>
		<stop  offset="1" style="stop-color:#D16D64"/>
	</linearGradient>
	<path class="st0" d="M2147.408,1172.903c-133.633,129.81-431.736,302.987-562.755,228.049
		c-129.175-74.122-157.683-81.776-316.043-212.794c-2.811-2.325-5.855-4.394-8.669-6.781
		c-161.777-137.179-141.764-62.241-204.542,11.388c-64.23,75.33-234.279,39.811-227.932-62.59
		c5.813-93.785,206.986-34.841,158.563-110.074c-4.453-6.918-9.641-14.463-15.58-23.152
		c-34.451-50.402-66.418-94.603-188.968-136.073c-170.75-58.228-440.869-92.148-508.964-67.733
		c-70.502,25.279-136.733,131.399-228.323,223.207c-50.706,50.826-88.038,93.221-96.979,101.968
		c-22.243,21.761-195.342,136.035-252.582,80.308"/>
	<linearGradient id="SVGID_24_" gradientUnits="userSpaceOnUse" x1="-296.0529" y1="1085.8281" x2="2158.4041" y2="1085.8281">
		<stop  offset="0" style="stop-color:#E3AA63"/>
		<stop  offset="1" style="stop-color:#D16D64"/>
	</linearGradient>
	<path class="st0" d="M2156.374,1156.547c-133.727,129.603-431.252,302.56-562.127,227.59
		c-129.035-74.155-157.614-81.931-315.906-212.596c-2.811-2.32-5.856-4.382-8.67-6.764
		c-161.683-136.803-141.583-61.87-204.028,11.743c-63.874,75.296-233.864,39.789-227.751-62.469
		c5.598-93.634,206.144-34.899,157.825-110.035c-4.448-6.917-9.623-14.459-15.539-23.142
		c-34.325-50.386-65.782-94.51-188.265-135.948c-170.601-58.166-440.98-92.005-508.973-67.532
		c-70.394,25.338-136.187,131.306-227.733,223.038c-50.645,50.749-87.936,93.078-96.898,101.823
		c-22.289,21.75-195.091,135.762-252.33,80.112"/>
	<linearGradient id="SVGID_25_" gradientUnits="userSpaceOnUse" x1="-284.9973" y1="1069.3082" x2="2167.0747" y2="1069.3082">
		<stop  offset="0" style="stop-color:#E3A963"/>
		<stop  offset="1" style="stop-color:#D16D64"/>
	</linearGradient>
	<path class="st0" d="M2165.047,1139.958c-133.822,129.395-430.768,302.133-561.499,227.131
		c-128.894-74.188-157.545-82.085-315.769-212.398c-2.811-2.315-5.857-4.37-8.671-6.746
		c-161.589-136.427-141.401-61.499-203.514,12.099c-63.517,75.261-233.449,39.767-227.569-62.348
		c5.383-93.483,205.302-34.957,157.088-109.996c-4.443-6.916-9.606-14.454-15.497-23.131
		c-34.199-50.371-65.146-94.418-187.562-135.823c-170.452-58.103-441.091-91.862-508.983-67.33
		c-70.286,25.397-135.642,131.212-227.143,222.87c-50.585,50.672-87.835,92.935-96.818,101.678
		c-22.335,21.739-194.84,135.489-252.077,79.917"/>
	<linearGradient id="SVGID_26_" gradientUnits="userSpaceOnUse" x1="-274.2385" y1="1052.5546" x2="2175.4485" y2="1052.5546">
		<stop  offset="0" style="stop-color:#E3A963"/>
		<stop  offset="1" style="stop-color:#D16D64"/>
	</linearGradient>
	<path class="st0" d="M2173.423,1123.134c-133.916,129.188-430.284,301.706-560.87,226.673
		c-128.754-74.221-157.476-82.239-315.632-212.2c-2.811-2.31-5.858-4.359-8.671-6.729c-161.495-136.05-141.219-61.129-203,12.454
		c-63.16,75.226-233.034,39.744-227.388-62.227c5.167-93.332,204.46-35.015,156.35-109.957c-4.439-6.914-9.588-14.449-15.455-23.121
		c-34.072-50.356-64.51-94.326-186.859-135.698c-170.303-58.04-441.202-91.719-508.993-67.128
		c-70.178,25.456-135.096,131.119-226.552,222.701c-50.524,50.594-87.733,92.793-96.737,101.534
		c-22.381,21.728-194.588,135.216-251.824,79.721"/>
	<linearGradient id="SVGID_27_" gradientUnits="userSpaceOnUse" x1="-263.7802" y1="1035.5667" x2="2183.5217" y2="1035.5667">
		<stop  offset="0" style="stop-color:#E3A963"/>
		<stop  offset="1" style="stop-color:#D16C64"/>
	</linearGradient>
	<path class="st0" d="M2181.499,1106.077c-134.01,128.981-429.801,301.278-560.242,226.214
		c-128.613-74.255-157.407-82.393-315.494-212.002c-2.812-2.305-5.859-4.346-8.672-6.712
		c-161.401-135.674-141.037-60.759-202.485,12.81c-62.803,75.191-232.619,39.722-227.207-62.106
		c4.952-93.181,203.617-35.073,155.613-109.918c-4.434-6.913-9.57-14.445-15.414-23.111
		c-33.946-50.341-63.874-94.233-186.156-135.572c-170.154-57.977-441.313-91.576-509.003-66.927
		C242.369,754.27,177.888,859.78,86.476,951.287c-50.464,50.517-87.632,92.65-96.657,101.389
		c-22.427,21.717-194.337,134.943-251.571,79.525"/>
	<linearGradient id="SVGID_28_" gradientUnits="userSpaceOnUse" x1="-253.6265" y1="1018.3444" x2="2191.2903" y2="1018.3444">
		<stop  offset="0" style="stop-color:#E3A963"/>
		<stop  offset="1" style="stop-color:#D16C63"/>
	</linearGradient>
	<path class="st0" d="M2189.27,1088.785c-134.104,128.773-429.317,300.851-559.614,225.755
		c-128.473-74.288-157.339-82.547-315.357-211.804c-2.812-2.3-5.859-4.335-8.673-6.694
		c-161.306-135.297-140.855-60.389-201.971,13.165c-62.446,75.155-232.203,39.7-227.026-61.985
		c4.737-93.03,202.775-35.131,154.875-109.879c-4.43-6.912-9.552-14.44-15.372-23.1c-33.819-50.325-63.238-94.141-185.453-135.447
		c-170.005-57.914-441.424-91.432-509.012-66.725c-69.962,25.575-134.005,130.932-225.372,222.364
		c-50.404,50.44-87.53,92.508-96.576,101.245c-22.473,21.706-194.085,134.67-251.318,79.329"/>
	<linearGradient id="SVGID_29_" gradientUnits="userSpaceOnUse" x1="-243.7812" y1="1000.8876" x2="2198.7505" y2="1000.8876">
		<stop  offset="0" style="stop-color:#E3A963"/>
		<stop  offset="1" style="stop-color:#D16C63"/>
	</linearGradient>
	<path class="st0" d="M2196.733,1071.259c-134.198,128.566-428.833,300.424-558.985,225.297
		c-128.333-74.321-157.27-82.701-315.22-211.606c-2.812-2.295-5.861-4.323-8.674-6.677
		c-161.212-134.921-140.673-60.02-201.457,13.52c-62.089,75.119-231.788,39.678-226.845-61.864
		c4.522-92.879,201.933-35.189,154.137-109.84c-4.425-6.911-9.534-14.435-15.33-23.09c-33.693-50.31-62.602-94.048-184.75-135.322
		c-169.856-57.852-441.535-91.289-509.022-66.524c-69.854,25.634-133.46,130.839-224.782,222.196
		c-50.343,50.363-87.429,92.365-96.496,101.1c-22.519,21.696-193.834,134.397-251.065,79.133"/>
	<linearGradient id="SVGID_30_" gradientUnits="userSpaceOnUse" x1="-234.2482" y1="983.196" x2="2205.8984" y2="983.196">
		<stop  offset="0" style="stop-color:#E2A863"/>
		<stop  offset="1" style="stop-color:#D16C63"/>
	</linearGradient>
	<path class="st0" d="M2203.883,1053.498c-134.293,128.359-428.349,299.997-558.357,224.838
		c-128.192-74.354-157.202-82.855-315.083-211.408c-2.812-2.29-5.861-4.311-8.674-6.66
		c-161.117-134.545-140.49-59.651-200.943,13.876c-61.732,75.083-231.373,39.656-226.663-61.743
		c4.307-92.728,201.091-35.247,153.4-109.8c-4.42-6.91-9.517-14.431-15.288-23.079c-33.567-50.295-61.966-93.956-184.047-135.197
		c-169.707-57.789-441.646-91.146-509.032-66.322C269.45,703.696,206.281,808.748,115.004,900.03
		c-50.283,50.285-87.327,92.222-96.415,100.956c-22.565,21.685-193.582,134.124-250.812,78.937"/>
	<linearGradient id="SVGID_31_" gradientUnits="userSpaceOnUse" x1="-225.0316" y1="965.2693" x2="2212.73" y2="965.2693">
		<stop  offset="0" style="stop-color:#E2A863"/>
		<stop  offset="1" style="stop-color:#D16C63"/>
	</linearGradient>
	<path class="st0" d="M2210.717,1035.502c-134.387,128.151-427.865,299.569-557.729,224.38
		c-128.052-74.387-157.134-83.009-314.945-211.21c-2.813-2.285-5.863-4.299-8.675-6.642
		c-161.022-134.169-140.308-59.282-200.428,14.231c-61.374,75.046-230.958,39.634-226.482-61.622
		c4.092-92.577,200.249-35.306,152.662-109.761c-4.416-6.909-9.499-14.426-15.247-23.069c-33.44-50.28-61.33-93.864-183.343-135.071
		c-169.558-57.726-441.757-91.003-509.042-66.12c-69.638,25.753-132.369,130.652-223.601,221.859
		c-50.222,50.208-87.225,92.08-96.335,100.811c-22.612,21.674-193.331,133.852-250.56,78.742"/>
	<linearGradient id="SVGID_32_" gradientUnits="userSpaceOnUse" x1="-216.1352" y1="947.1074" x2="2219.2415" y2="947.1074">
		<stop  offset="0" style="stop-color:#E2A863"/>
		<stop  offset="1" style="stop-color:#D16C63"/>
	</linearGradient>
	<path class="st0" d="M2217.231,1017.27c-134.481,127.944-427.381,299.142-557.1,223.921
		c-127.911-74.421-157.066-83.163-314.808-211.012c-2.813-2.28-5.863-4.287-8.676-6.625
		c-160.927-133.793-140.125-58.914-199.914,14.587c-61.016,75.009-230.542,39.613-226.301-61.501
		c3.877-92.426,199.407-35.364,151.924-109.722c-4.411-6.908-9.481-14.422-15.205-23.058
		c-33.314-50.265-60.695-93.771-182.64-134.946c-169.409-57.663-441.868-90.86-509.052-65.919
		c-69.53,25.812-131.823,130.559-223.011,221.69c-50.162,50.131-87.124,91.937-96.254,100.667
		c-22.658,21.663-193.079,133.578-250.307,78.546"/>
	<linearGradient id="SVGID_33_" gradientUnits="userSpaceOnUse" x1="-207.5629" y1="928.7099" x2="2225.4285" y2="928.7099">
		<stop  offset="0" style="stop-color:#E2A863"/>
		<stop  offset="1" style="stop-color:#D06B63"/>
	</linearGradient>
	<path class="st0" d="M2223.42,998.803c-134.575,127.737-426.898,298.715-556.472,223.462
		c-127.771-74.454-156.998-83.317-314.671-210.814c-2.813-2.275-5.864-4.275-8.677-6.608
		c-160.832-133.417-139.941-58.546-199.4,14.942c-60.659,74.972-230.127,39.591-226.12-61.38
		c3.662-92.274,198.565-35.422,151.187-109.683c-4.407-6.907-9.463-14.417-15.163-23.048
		c-33.187-50.25-60.059-93.679-181.937-134.821c-169.259-57.601-441.979-90.717-509.061-65.717
		c-69.421,25.871-131.278,130.465-222.421,221.521c-50.102,50.054-87.022,91.795-96.174,100.522
		c-22.704,21.652-192.828,133.306-250.054,78.35"/>
	<linearGradient id="SVGID_34_" gradientUnits="userSpaceOnUse" x1="-199.3186" y1="910.0767" x2="2231.2878" y2="910.0767">
		<stop  offset="0" style="stop-color:#E2A863"/>
		<stop  offset="1" style="stop-color:#D06B63"/>
	</linearGradient>
	<path class="st0" d="M2229.282,980.101c-134.67,127.529-426.414,298.288-555.844,223.004
		c-127.63-74.487-156.93-83.471-314.534-210.616c-2.813-2.27-5.865-4.263-8.677-6.59
		c-160.736-133.041-139.758-58.179-198.885,15.298c-60.301,74.935-229.712,39.569-225.939-61.259
		c3.447-92.123,197.723-35.48,150.449-109.644c-4.402-6.906-9.445-14.413-15.122-23.038
		c-33.061-50.236-59.423-93.586-181.234-134.696c-169.11-57.538-442.09-90.573-509.071-65.516
		c-69.313,25.93-130.732,130.372-221.83,221.353c-50.041,49.977-86.921,91.652-96.093,100.378
		c-22.75,21.641-192.576,133.033-249.801,78.154"/>
	<linearGradient id="SVGID_35_" gradientUnits="userSpaceOnUse" x1="-191.4063" y1="891.2075" x2="2236.8149" y2="891.2075">
		<stop  offset="0" style="stop-color:#E2A863"/>
		<stop  offset="1" style="stop-color:#D06B63"/>
	</linearGradient>
	<path class="st0" d="M2234.812,961.162c-134.764,127.322-425.93,297.861-555.216,222.545
		c-127.49-74.52-156.863-83.625-314.396-210.418c-2.813-2.264-5.866-4.251-8.678-6.573
		c-160.641-132.664-139.574-57.812-198.371,15.653c-59.943,74.897-229.296,39.548-225.758-61.138
		c3.232-91.971,196.882-35.539,149.711-109.605c-4.397-6.905-9.427-14.408-15.08-23.027
		c-32.935-50.221-58.787-93.494-180.531-134.57c-168.961-57.475-442.2-90.43-509.081-65.314
		c-69.205,25.989-130.186,130.279-221.24,221.184c-49.981,49.899-86.819,91.51-96.013,100.233
		c-22.796,21.63-192.325,132.76-249.548,77.958"/>
	<linearGradient id="SVGID_36_" gradientUnits="userSpaceOnUse" x1="-183.8299" y1="872.1022" x2="2242.0061" y2="872.1022">
		<stop  offset="0" style="stop-color:#E2A763"/>
		<stop  offset="1" style="stop-color:#D06B63"/>
	</linearGradient>
	<path class="st0" d="M2240.005,941.988c-134.858,127.115-425.446,297.433-554.587,222.086
		c-127.349-74.553-156.796-83.778-314.259-210.22c-2.814-2.259-5.867-4.239-8.679-6.556
		c-160.545-132.289-139.39-57.445-197.857,16.008c-59.585,74.859-228.881,39.526-225.576-61.017
		c3.018-91.82,196.04-35.597,148.974-109.566c-4.393-6.904-9.41-14.403-15.038-23.017c-32.808-50.206-58.151-93.402-179.828-134.445
		c-168.812-57.412-442.311-90.287-509.091-65.113c-69.097,26.048-129.641,130.185-220.65,221.016
		c-49.92,49.822-86.717,91.367-95.932,100.089c-22.842,21.619-192.073,132.487-249.295,77.762"/>
	<linearGradient id="SVGID_37_" gradientUnits="userSpaceOnUse" x1="-176.5933" y1="852.7604" x2="2246.8577" y2="852.7604">
		<stop  offset="0" style="stop-color:#E2A763"/>
		<stop  offset="1" style="stop-color:#D06B63"/>
	</linearGradient>
	<path class="st0" d="M2244.859,922.577c-134.953,126.907-424.963,297.006-553.959,221.628
		c-127.209-74.587-156.728-83.932-314.122-210.022c-2.814-2.254-5.868-4.227-8.68-6.538
		c-160.449-131.913-139.206-57.079-197.343,16.364c-59.227,74.82-228.465,39.505-225.395-60.896
		c2.803-91.668,195.198-35.655,148.236-109.527c-4.388-6.903-9.392-14.399-14.996-23.006
		c-32.682-50.191-57.515-93.309-179.125-134.32c-168.663-57.35-442.422-90.144-509.1-64.911
		c-68.989,26.108-129.095,130.092-220.06,220.847c-49.86,49.745-86.616,91.224-95.852,99.944
		c-22.888,21.609-191.822,132.214-249.043,77.566"/>
	<linearGradient id="SVGID_38_" gradientUnits="userSpaceOnUse" x1="-169.7005" y1="833.182" x2="2251.3652" y2="833.182">
		<stop  offset="0" style="stop-color:#E2A763"/>
		<stop  offset="1" style="stop-color:#D06B63"/>
	</linearGradient>
	<path class="st0" d="M2249.37,902.929c-135.047,126.7-424.479,296.579-553.331,221.169
		c-127.069-74.62-156.661-84.085-313.984-209.824c-2.814-2.249-5.869-4.215-8.681-6.521
		c-160.353-131.537-139.022-56.713-196.828,16.719c-58.869,74.781-228.049,39.484-225.214-60.775
		c2.588-91.516,194.356-35.714,147.498-109.488c-4.384-6.902-9.374-14.394-14.955-22.996
		c-32.556-50.177-56.879-93.217-178.422-134.195c-168.514-57.287-442.533-90.001-509.11-64.709
		c-68.881,26.167-128.55,129.999-219.47,220.679c-49.799,49.668-86.514,91.082-95.771,99.8
		c-22.934,21.598-191.571,131.941-248.79,77.371"/>
	<linearGradient id="SVGID_39_" gradientUnits="userSpaceOnUse" x1="-163.1553" y1="813.3668" x2="2255.5254" y2="813.3668">
		<stop  offset="0" style="stop-color:#E2A763"/>
		<stop  offset="1" style="stop-color:#D06A63"/>
	</linearGradient>
	<path class="st0" d="M2253.532,883.045c-135.141,126.493-423.995,296.152-552.702,220.71
		c-126.928-74.653-156.594-84.239-313.847-209.626c-2.814-2.244-5.87-4.203-8.681-6.504
		c-160.257-131.161-138.837-56.347-196.314,17.075c-58.51,74.742-227.634,39.463-225.033-60.654
		c2.374-91.365,193.515-35.772,146.761-109.449c-4.379-6.901-9.356-14.39-14.913-22.985
		c-32.429-50.162-56.243-93.124-177.719-134.069c-168.365-57.224-442.644-89.858-509.12-64.508
		c-68.773,26.226-128.004,129.905-218.879,220.51c-49.739,49.591-86.412,90.939-95.691,99.655
		c-22.98,21.587-191.319,131.668-248.537,77.175"/>
	<linearGradient id="SVGID_40_" gradientUnits="userSpaceOnUse" x1="-156.9617" y1="793.3144" x2="2259.3337" y2="793.3144">
		<stop  offset="0" style="stop-color:#E2A763"/>
		<stop  offset="1" style="stop-color:#D06A63"/>
	</linearGradient>
	<path class="st0" d="M2257.343,862.923c-135.235,126.285-423.511,295.724-552.074,220.252
		c-126.788-74.686-156.527-84.392-313.71-209.428c-2.815-2.239-5.871-4.191-8.682-6.486
		c-160.161-130.786-138.652-55.982-195.8,17.43c-58.152,74.702-227.218,39.442-224.852-60.533
		c2.159-91.213,192.673-35.831,146.023-109.41c-4.374-6.899-9.338-14.385-14.871-22.975
		c-32.303-50.148-55.607-93.032-177.016-133.944c-168.216-57.161-442.755-89.715-509.13-64.306
		c-68.665,26.285-127.458,129.812-218.289,220.342c-49.678,49.514-86.311,90.797-95.61,99.51
		C70.307,834.951-97.735,944.77-154.952,890.354"/>
	<linearGradient id="SVGID_41_" gradientUnits="userSpaceOnUse" x1="-151.1236" y1="773.0247" x2="2262.7866" y2="773.0247">
		<stop  offset="0" style="stop-color:#E2A663"/>
		<stop  offset="1" style="stop-color:#D06A63"/>
	</linearGradient>
	<path class="st0" d="M2260.798,842.565c-135.329,126.078-423.027,295.297-551.446,219.793
		c-126.647-74.72-156.461-84.545-313.573-209.23c-2.815-2.234-5.872-4.179-8.683-6.469
		c-160.065-130.41-138.468-55.617-195.286,17.786c-57.793,74.662-226.802,39.421-224.671-60.412
		c1.945-91.061,191.831-35.889,145.286-109.37c-4.37-6.898-9.321-14.381-14.83-22.965c-32.176-50.134-54.971-92.94-176.313-133.819
		c-168.067-57.099-442.866-89.572-509.139-64.105c-68.557,26.344-126.913,129.719-217.699,220.173
		c-49.618,49.437-86.209,90.654-95.53,99.366C75.844,814.878-91.9,924.435-149.115,870.096"/>
	<linearGradient id="SVGID_42_" gradientUnits="userSpaceOnUse" x1="-145.6449" y1="752.4974" x2="2265.8804" y2="752.4974">
		<stop  offset="0" style="stop-color:#E2A663"/>
		<stop  offset="1" style="stop-color:#D06A63"/>
	</linearGradient>
	<path class="st0" d="M2263.895,821.968c-135.424,125.871-422.544,294.87-550.818,219.334
		c-126.507-74.753-156.394-84.698-313.435-209.031c-2.815-2.229-5.873-4.167-8.683-6.452
		c-159.968-130.034-138.282-55.253-194.771,18.141c-57.434,74.622-226.387,39.4-224.489-60.291
		c1.73-90.909,190.99-35.948,144.548-109.331c-4.365-6.897-9.303-14.376-14.788-22.954c-32.05-50.119-54.335-92.847-175.609-133.694
		c-167.918-57.036-442.977-89.428-509.149-63.903C348.25,480.19,290.331,583.412,199.59,673.792
		c-49.557,49.359-86.108,90.512-95.449,99.221C81.023,794.567-86.424,903.862-143.638,849.6"/>
	<linearGradient id="SVGID_43_" gradientUnits="userSpaceOnUse" x1="-140.5296" y1="731.7324" x2="2268.6104" y2="731.7324">
		<stop  offset="0" style="stop-color:#E2A663"/>
		<stop  offset="1" style="stop-color:#D06A63"/>
	</linearGradient>
	<path class="st0" d="M2266.627,801.134c-135.518,125.663-422.06,294.443-550.189,218.876
		c-126.366-74.786-156.328-84.852-313.298-208.834c-2.815-2.224-5.874-4.155-8.684-6.434
		c-159.871-129.659-138.097-54.889-194.257,18.497c-57.075,74.582-225.971,39.379-224.308-60.17
		c1.516-90.757,190.148-36.007,143.81-109.292c-4.361-6.896-9.285-14.372-14.746-22.944
		c-31.924-50.105-53.699-92.755-174.906-133.568c-167.769-56.973-443.088-89.285-509.159-63.701
		c-68.34,26.463-125.822,129.532-216.518,219.836c-49.497,49.282-86.006,90.369-95.369,99.077
		c-23.164,21.544-190.313,130.576-247.525,76.392"/>
	<linearGradient id="SVGID_44_" gradientUnits="userSpaceOnUse" x1="-135.7815" y1="710.7292" x2="2270.9734" y2="710.7292">
		<stop  offset="0" style="stop-color:#E2A662"/>
		<stop  offset="1" style="stop-color:#D06A63"/>
	</linearGradient>
	<path class="st0" d="M2268.992,780.062c-135.612,125.456-421.576,294.015-549.561,218.417
		c-126.226-74.819-156.262-85.005-313.161-208.635c-2.816-2.219-5.875-4.143-8.685-6.417
		c-159.774-129.283-137.911-54.526-193.743,18.852c-56.717,74.541-225.555,39.358-224.127-60.049
		c1.301-90.605,189.307-36.065,143.073-109.253c-4.356-6.895-9.267-14.367-14.705-22.933
		c-31.797-50.091-53.063-92.662-174.203-133.443c-167.62-56.91-443.199-89.142-509.169-63.5
		c-68.232,26.522-125.276,129.439-215.928,219.667c-49.436,49.205-85.904,90.227-95.288,98.932
		c-23.21,21.533-190.062,130.303-247.273,76.196"/>
	<linearGradient id="SVGID_45_" gradientUnits="userSpaceOnUse" x1="-131.4046" y1="689.4879" x2="2272.9651" y2="689.4879">
		<stop  offset="0" style="stop-color:#E1A662"/>
		<stop  offset="1" style="stop-color:#D06A63"/>
	</linearGradient>
	<path class="st0" d="M2270.987,758.752c-135.706,125.249-421.092,293.588-548.933,217.958
		c-126.085-74.852-156.196-85.158-313.024-208.438c-2.816-2.214-5.876-4.131-8.686-6.399
		c-159.677-128.908-137.725-54.162-193.229,19.207c-56.358,74.499-225.139,39.338-223.946-59.928
		c1.087-90.452,188.466-36.124,142.335-109.214c-4.351-6.894-9.249-14.363-14.663-22.923c-31.671-50.077-52.428-92.57-173.5-133.318
		c-167.471-56.848-443.31-88.999-509.179-63.298c-68.124,26.581-124.73,129.345-215.338,219.499
		c-49.376,49.128-85.803,90.084-95.208,98.788c-23.256,21.522-189.81,130.03-247.02,76"/>
	<linearGradient id="SVGID_46_" gradientUnits="userSpaceOnUse" x1="-127.4028" y1="668.0082" x2="2274.5815" y2="668.0082">
		<stop  offset="0" style="stop-color:#E1A662"/>
		<stop  offset="1" style="stop-color:#CF6963"/>
	</linearGradient>
	<path class="st0" d="M2272.606,737.203c-135.801,125.041-420.609,293.161-548.304,217.5
		c-125.945-74.886-156.13-85.311-312.886-208.24c-2.816-2.209-5.877-4.119-8.687-6.382c-159.58-128.533-137.539-53.8-192.714,19.563
		c-55.998,74.457-224.723,39.317-223.765-59.807c0.873-90.3,187.624-36.183,141.597-109.175
		c-4.347-6.893-9.231-14.359-14.621-22.913c-31.545-50.063-51.792-92.478-172.797-133.193
		C773.107,377.772,497.008,345.7,431.24,371.46c-68.016,26.64-124.184,129.252-214.748,219.33
		c-49.315,49.051-85.701,89.941-95.127,98.643C98.063,710.945-68.193,819.19-125.402,765.237"/>
	<linearGradient id="SVGID_47_" gradientUnits="userSpaceOnUse" x1="-123.7801" y1="646.2897" x2="2275.8191" y2="646.2897">
		<stop  offset="0" style="stop-color:#E1A562"/>
		<stop  offset="1" style="stop-color:#CF6962"/>
	</linearGradient>
	<path class="st0" d="M2273.846,715.416c-135.895,124.834-420.125,292.734-547.676,217.041
		c-125.805-74.919-156.064-85.464-312.749-208.042c-2.817-2.203-5.878-4.107-8.687-6.365
		c-159.483-128.158-137.353-53.437-192.2,19.918c-55.639,74.415-224.307,39.297-223.583-59.686
		c0.659-90.148,186.783-36.242,140.86-109.136c-4.342-6.892-9.213-14.354-14.579-22.902
		c-31.418-50.049-51.156-92.385-172.094-133.067c-167.173-56.722-443.531-88.713-509.198-62.895
		c-67.908,26.699-123.639,129.159-214.157,219.162c-49.255,48.974-85.599,89.799-95.047,98.499
		c-23.348,21.5-189.307,129.484-246.514,75.608"/>
	<linearGradient id="SVGID_48_" gradientUnits="userSpaceOnUse" x1="-120.5403" y1="624.3322" x2="2276.6738" y2="624.3322">
		<stop  offset="0" style="stop-color:#E1A562"/>
		<stop  offset="1" style="stop-color:#CF6962"/>
	</linearGradient>
	<path class="st0" d="M2274.703,693.39c-135.989,124.627-419.641,292.307-547.048,216.582
		c-125.664-74.952-155.999-85.617-312.612-207.844c-2.817-2.198-5.879-4.095-8.688-6.347
		c-159.385-127.782-137.167-53.076-191.686,20.274c-55.28,74.373-223.891,39.276-223.402-59.566
		c0.445-89.995,185.942-36.3,140.122-109.097c-4.337-6.891-9.196-14.35-14.538-22.892c-31.292-50.035-50.52-92.293-171.391-132.942
		c-167.023-56.659-443.642-88.57-509.208-62.694c-67.8,26.758-123.093,129.066-213.567,218.993
		c-49.194,48.897-85.498,89.656-94.966,98.354c-23.394,21.49-189.056,129.211-246.261,75.412"/>
	<linearGradient id="SVGID_49_" gradientUnits="userSpaceOnUse" x1="-117.6873" y1="602.1357" x2="2277.1414" y2="602.1357">
		<stop  offset="0" style="stop-color:#E1A562"/>
		<stop  offset="1" style="stop-color:#CF6962"/>
	</linearGradient>
	<path class="st0" d="M2275.173,671.124c-136.083,124.419-419.157,291.879-546.419,216.124
		c-125.524-74.985-155.933-85.769-312.475-207.646c-2.817-2.193-5.88-4.083-8.689-6.33
		c-159.287-127.407-136.98-52.714-191.171,20.629c-54.921,74.33-223.474,39.256-223.221-59.445
		c0.231-89.843,185.1-36.359,139.385-109.058c-4.333-6.89-9.178-14.345-14.496-22.881c-31.166-50.021-49.884-92.201-170.688-132.817
		c-166.874-56.596-443.753-88.427-509.218-62.492c-67.692,26.817-122.547,128.972-212.977,218.825
		c-49.133,48.82-85.396,89.514-94.886,98.21c-23.44,21.479-188.804,128.938-246.008,75.217"/>
	<linearGradient id="SVGID_50_" gradientUnits="userSpaceOnUse" x1="-115.2252" y1="579.6997" x2="2277.2183" y2="579.6997">
		<stop  offset="0" style="stop-color:#E1A562"/>
		<stop  offset="1" style="stop-color:#CF6962"/>
	</linearGradient>
	<path class="st0" d="M2275.253,648.62c-136.178,124.212-418.674,291.452-545.791,215.665
		c-125.383-75.018-155.868-85.922-312.337-207.448c-2.817-2.188-5.881-4.071-8.69-6.313
		c-159.189-127.032-136.793-52.353-190.657,20.985c-54.561,74.287-223.058,39.236-223.04-59.324
		c0.017-89.69,184.259-36.418,138.647-109.019c-4.328-6.889-9.16-14.341-14.454-22.871
		c-31.039-50.007-49.248-92.108-169.985-132.692c-166.725-56.534-443.864-88.284-509.227-62.29
		C372.134,312.19,317.716,414.193,227.331,503.97c-49.073,48.743-85.294,89.371-94.805,98.065
		C109.04,623.503-56.027,730.7-113.23,677.056"/>
	<linearGradient id="SVGID_51_" gradientUnits="userSpaceOnUse" x1="-113.1578" y1="557.0241" x2="2276.9006" y2="557.0241">
		<stop  offset="0" style="stop-color:#E1A562"/>
		<stop  offset="1" style="stop-color:#CF6962"/>
	</linearGradient>
	<path class="st0" d="M2274.937,625.875c-136.272,124.005-418.19,291.025-545.163,215.206
		c-125.243-75.052-155.803-86.075-312.2-207.249c-2.818-2.183-5.882-4.059-8.69-6.295
		c-159.091-126.657-136.606-51.993-190.143,21.34c-54.202,74.243-222.642,39.215-222.859-59.203
		c-0.197-89.538,183.418-36.477,137.909-108.98c-4.323-6.888-9.142-14.337-14.413-22.86
		c-30.913-49.994-48.612-92.016-169.282-132.566c-166.576-56.471-443.975-88.141-509.237-62.089
		c-67.476,26.935-121.456,128.786-211.796,218.488c-49.012,48.666-85.193,89.229-94.725,97.921
		c-23.532,21.457-188.302,128.392-245.503,74.825"/>
	<linearGradient id="SVGID_52_" gradientUnits="userSpaceOnUse" x1="-111.489" y1="534.1087" x2="2276.1841" y2="534.1087">
		<stop  offset="0" style="stop-color:#E1A462"/>
		<stop  offset="1" style="stop-color:#CF6862"/>
	</linearGradient>
	<path class="st0" d="M2274.223,602.891c-136.366,123.797-417.706,290.598-544.535,214.748
		c-125.102-75.085-155.738-86.227-312.063-207.051c-2.818-2.178-5.882-4.047-8.691-6.278
		c-158.993-126.282-136.419-51.632-189.629,21.695c-53.842,74.199-222.225,39.195-222.678-59.082
		c-0.411-89.385,182.577-36.536,137.172-108.941c-4.319-6.887-9.124-14.332-14.371-22.85
		c-30.786-49.98-47.976-91.923-168.579-132.441c-166.427-56.408-444.086-87.998-509.247-61.887
		c-67.367,26.995-120.91,128.693-211.206,218.319c-48.952,48.589-85.091,89.086-94.644,97.776
		c-23.578,21.447-188.05,128.119-245.25,74.629"/>
	<linearGradient id="SVGID_53_" gradientUnits="userSpaceOnUse" x1="-110.2211" y1="511.204" x2="2275.0667" y2="511.204">
		<stop  offset="0" style="stop-color:#E1A462"/>
		<stop  offset="1" style="stop-color:#CF6862"/>
	</linearGradient>
	<path class="st0" d="M2273.109,579.918c-136.46,123.59-417.222,290.17-543.906,214.289
		c-124.962-75.118-155.673-86.38-311.926-206.853c-2.818-2.173-5.884-4.035-8.692-6.261
		c-158.895-125.907-136.231-51.273-189.114,22.051c-53.482,74.154-221.809,39.175-222.496-58.961
		c-0.625-89.232,181.736-36.595,136.434-108.901c-4.314-6.886-9.106-14.328-14.329-22.84
		c-30.66-49.966-47.34-91.831-167.876-132.316c-166.278-56.345-444.197-87.855-509.257-61.686
		C374.687,245.494,321.582,347.04,231.33,436.591c-48.891,48.512-84.989,88.944-94.564,97.632
		c-23.624,21.436-187.799,127.846-244.997,74.433"/>
	<linearGradient id="SVGID_54_" gradientUnits="userSpaceOnUse" x1="-109.3329" y1="488.9164" x2="2273.5696" y2="488.9164">
		<stop  offset="0" style="stop-color:#E1A462"/>
		<stop  offset="1" style="stop-color:#CF6862"/>
	</linearGradient>
	<path class="st0" d="M2271.614,557.562c-136.554,123.383-416.738,289.743-543.278,213.831
		c-124.821-75.151-155.609-86.532-311.788-206.655c-2.819-2.168-5.884-4.023-8.693-6.243
		c-158.796-125.533-136.043-50.914-188.6,22.406c-53.123,74.11-221.393,39.155-222.315-58.84
		c-0.839-89.079,180.895-36.654,135.696-108.862c-4.31-6.885-9.089-14.323-14.288-22.829
		c-30.534-49.953-46.704-91.739-167.172-132.191c-166.129-56.283-444.308-87.712-509.267-61.484
		C374.758,223.806,322.091,325.2,231.884,414.676c-48.83,48.435-84.888,88.801-94.483,97.487
		C113.731,533.588-50.146,639.736-107.344,586.4"/>
	<linearGradient id="SVGID_55_" gradientUnits="userSpaceOnUse" x1="-108.8137" y1="466.8663" x2="2271.7036" y2="466.8663">
		<stop  offset="0" style="stop-color:#E1A462"/>
		<stop  offset="1" style="stop-color:#CF6862"/>
	</linearGradient>
	<path class="st0" d="M2269.75,535.443c-136.649,123.175-416.255,289.316-542.65,213.372
		c-124.681-75.185-155.544-86.684-311.651-206.457c-2.819-2.163-5.885-4.011-8.693-6.226
		c-158.698-125.158-135.855-50.555-188.086,22.762c-52.763,74.064-220.976,39.136-222.134-58.719
		c-1.052-88.926,180.054-36.713,134.959-108.823c-4.305-6.884-9.071-14.319-14.246-22.819
		c-30.407-49.939-46.068-91.646-166.469-132.066c-165.98-56.22-444.419-87.569-509.276-61.282
		c-67.043,27.172-119.273,128.413-209.435,217.813c-48.77,48.358-84.786,88.659-94.403,97.343
		C113.95,511.755-49.63,617.641-106.826,564.382"/>
	<linearGradient id="SVGID_56_" gradientUnits="userSpaceOnUse" x1="-108.6602" y1="445.0516" x2="2269.4717" y2="445.0516">
		<stop  offset="0" style="stop-color:#E1A462"/>
		<stop  offset="1" style="stop-color:#CF6862"/>
	</linearGradient>
	<path class="st0" d="M2267.521,513.56C2130.778,636.528,1851.75,802.448,1725.5,726.473
		c-124.541-75.218-155.48-86.837-311.514-206.259c-2.819-2.158-5.886-4-8.694-6.209c-158.599-124.783-135.667-50.196-187.571,23.117
		c-52.403,74.019-220.559,39.116-221.953-58.598c-1.266-88.773,179.213-36.772,134.221-108.784
		c-4.3-6.883-9.053-14.315-14.204-22.808c-30.281-49.926-45.433-91.554-165.766-131.94
		c-165.831-56.157-444.529-87.425-509.286-61.081c-66.935,27.231-118.727,128.32-208.845,217.645
		c-48.709,48.281-84.684,88.516-94.322,97.198c-23.761,21.404-187.044,127.028-244.239,73.846"/>
	<linearGradient id="SVGID_57_" gradientUnits="userSpaceOnUse" x1="-108.8689" y1="423.4701" x2="2266.8779" y2="423.4701">
		<stop  offset="0" style="stop-color:#E1A462"/>
		<stop  offset="1" style="stop-color:#CF6862"/>
	</linearGradient>
	<path class="st0" d="M2264.93,491.91c-136.837,122.761-415.287,288.461-541.393,212.455
		c-124.4-75.251-155.416-86.989-311.376-206.061c-2.819-2.153-5.887-3.988-8.695-6.191
		c-158.5-124.408-135.479-49.839-187.057,23.473c-52.043,73.972-220.143,39.096-221.772-58.477
		c-1.48-88.62,178.372-36.831,133.484-108.745c-4.296-6.882-9.035-14.31-14.162-22.798
		c-30.155-49.913-44.797-91.461-165.063-131.815c-165.682-56.094-444.64-87.282-509.296-60.879
		c-66.827,27.29-118.181,128.227-208.255,217.476c-48.649,48.204-84.583,88.374-94.242,97.053
		c-23.807,21.393-186.793,126.755-243.986,73.65"/>
	<linearGradient id="SVGID_58_" gradientUnits="userSpaceOnUse" x1="-109.4361" y1="402.1196" x2="2263.9253" y2="402.1196">
		<stop  offset="0" style="stop-color:#E1A362"/>
		<stop  offset="1" style="stop-color:#CF6762"/>
	</linearGradient>
	<path class="st0" d="M2261.98,470.491c-136.932,122.553-414.803,288.034-540.765,211.996
		c-124.26-75.284-155.352-87.141-311.239-205.863c-2.82-2.148-5.888-3.976-8.696-6.174
		c-158.401-124.034-135.291-49.481-186.543,23.828c-51.683,73.926-219.726,39.077-221.591-58.356
		c-1.693-88.467,177.531-36.891,132.746-108.706c-4.291-6.881-9.017-14.306-14.121-22.788c-30.028-49.9-44.161-91.369-164.36-131.69
		c-165.533-56.032-444.751-87.139-509.306-60.678c-66.719,27.349-117.635,128.133-207.665,217.308
		c-48.588,48.126-84.481,88.231-94.161,96.909c-23.853,21.382-186.541,126.482-243.733,73.454"/>
	<linearGradient id="SVGID_59_" gradientUnits="userSpaceOnUse" x1="-110.3585" y1="380.998" x2="2260.6177" y2="380.998">
		<stop  offset="0" style="stop-color:#E0A362"/>
		<stop  offset="1" style="stop-color:#CE6762"/>
	</linearGradient>
	<path class="st0" d="M2258.675,449.301c-137.026,122.346-414.32,287.607-540.137,211.537
		c-124.119-75.317-155.288-87.293-311.102-205.665c-2.82-2.142-5.889-3.964-8.696-6.157
		c-158.301-123.659-135.102-49.124-186.029,24.184c-51.323,73.879-219.309,39.057-221.409-58.235
		c-1.906-88.314,176.691-36.95,132.008-108.667c-4.286-6.88-8.999-14.302-14.079-22.777
		c-29.902-49.886-43.525-91.277-163.657-131.564C780.19,95.987,500.712,64.96,436.259,91.48
		c-66.611,27.408-117.09,128.04-207.075,217.139c-48.527,48.049-84.379,88.089-94.081,96.764
		c-23.899,21.372-186.29,126.209-243.48,73.258"/>
	<linearGradient id="SVGID_60_" gradientUnits="userSpaceOnUse" x1="-111.6324" y1="360.1031" x2="2256.9585" y2="360.1031">
		<stop  offset="0" style="stop-color:#E0A362"/>
		<stop  offset="1" style="stop-color:#CE6762"/>
	</linearGradient>
	<path class="st0" d="M2255.018,428.338c-137.12,122.139-413.836,287.18-539.509,211.079
		c-123.979-75.351-155.224-87.445-310.965-205.467c-2.82-2.137-5.89-3.952-8.697-6.139
		c-158.202-123.285-134.913-48.768-185.514,24.539c-50.963,73.832-218.892,39.038-221.228-58.114
		c-2.12-88.161,175.85-37.009,131.271-108.628c-4.282-6.879-8.981-14.298-14.037-22.767
		c-29.776-49.873-42.889-91.184-162.954-131.439C778.15,75.495,498.412,44.547,434.059,71.126
		c-66.503,27.467-116.544,127.947-206.484,216.971c-48.467,47.973-84.278,87.946-94,96.62
		c-23.945,21.361-186.038,125.936-243.227,73.062"/>
	<linearGradient id="SVGID_61_" gradientUnits="userSpaceOnUse" x1="-113.2545" y1="339.4327" x2="2252.9509" y2="339.4327">
		<stop  offset="0" style="stop-color:#E0A362"/>
		<stop  offset="1" style="stop-color:#CE6762"/>
	</linearGradient>
	<path class="st0" d="M2251.013,407.599c-137.214,121.931-413.352,286.752-538.88,210.62
		c-123.838-75.384-155.161-87.597-310.828-205.269c-2.821-2.132-5.891-3.94-8.698-6.122c-158.102-122.911-134.724-48.412-185,24.894
		c-50.603,73.784-218.475,39.018-221.047-57.993c-2.333-88.007,175.009-37.069,130.533-108.589
		c-4.277-6.878-8.963-14.293-13.996-22.756c-29.649-49.86-42.253-91.092-162.251-131.314
		c-165.086-55.843-445.084-86.71-509.335-60.073c-66.394,27.526-115.998,127.854-205.894,216.802
		c-48.406,47.896-84.176,87.804-93.92,96.475c-23.991,21.35-185.787,125.663-242.974,72.867"/>
	<linearGradient id="SVGID_62_" gradientUnits="userSpaceOnUse" x1="-115.2211" y1="318.9847" x2="2248.5991" y2="318.9847">
		<stop  offset="0" style="stop-color:#E0A362"/>
		<stop  offset="1" style="stop-color:#CE6762"/>
	</linearGradient>
	<path class="st0" d="M2246.664,387.083c-137.309,121.724-412.868,286.325-538.252,210.161
		c-123.698-75.417-155.097-87.749-310.69-205.071c-2.821-2.127-5.892-3.928-8.699-6.105
		c-158.002-122.537-134.535-48.057-184.486,25.25c-50.243,73.735-218.058,38.999-220.866-57.872
		c-2.546-87.854,174.169-37.128,129.795-108.55c-4.272-6.877-8.945-14.289-13.954-22.746
		c-29.523-49.847-41.617-90.999-161.548-131.189C773.029,35.181,492.77,4.394,428.621,31.09
		c-66.286,27.585-115.452,127.761-205.304,216.634c-48.345,47.819-84.074,87.661-93.839,96.331
		c-24.036,21.34-185.535,125.39-242.721,72.671"/>
	<linearGradient id="SVGID_63_" gradientUnits="userSpaceOnUse" x1="-117.5289" y1="298.7569" x2="2243.906" y2="298.7569">
		<stop  offset="0" style="stop-color:#E0A262"/>
		<stop  offset="1" style="stop-color:#CE6762"/>
	</linearGradient>
	<path class="st0" d="M2241.974,366.786c-137.403,121.517-412.384,285.898-537.624,209.703
		c-123.557-75.45-155.034-87.9-310.553-204.873c-2.821-2.122-5.893-3.916-8.699-6.087
		c-157.902-122.162-134.346-47.702-183.972,25.605c-49.883,73.687-217.641,38.98-220.685-57.751
		c-2.759-87.7,173.328-37.187,129.058-108.511c-4.268-6.876-8.927-14.285-13.912-22.735
		c-29.396-49.834-40.981-90.907-160.845-131.064c-164.788-55.718-445.306-86.424-509.354-59.67
		c-66.178,27.644-114.906,127.668-204.714,216.465c-48.285,47.742-83.972,87.519-93.759,96.186
		c-24.082,21.329-185.284,125.117-242.469,72.475"/>
	<linearGradient id="SVGID_64_" gradientUnits="userSpaceOnUse" x1="-120.1742" y1="278.7472" x2="2238.8752" y2="278.7472">
		<stop  offset="0" style="stop-color:#E0A262"/>
		<stop  offset="1" style="stop-color:#CE6662"/>
	</linearGradient>
	<path class="st0" d="M2236.946,346.708c-137.497,121.309-411.901,285.471-536.995,209.244
		c-123.417-75.483-154.971-88.052-310.416-204.675c-2.822-2.117-5.893-3.904-8.7-6.07
		c-157.802-121.788-134.156-47.347-183.457,25.961c-49.523,73.638-217.224,38.961-220.503-57.63
		c-2.972-87.547,172.487-37.247,128.32-108.471c-4.263-6.875-8.91-14.281-13.871-22.725
		c-29.27-49.822-40.345-90.815-160.142-130.938C766.543-4.252,485.765-34.879,421.817-8.065
		c-66.07,27.703-114.36,127.575-204.123,216.296c-48.224,47.665-83.871,87.376-93.678,96.042
		C99.887,325.591-61.017,429.117-118.2,376.552"/>
	<linearGradient id="SVGID_65_" gradientUnits="userSpaceOnUse" x1="-123.1536" y1="258.9532" x2="2233.5105" y2="258.9532">
		<stop  offset="0" style="stop-color:#E0A262"/>
		<stop  offset="1" style="stop-color:#CE6662"/>
	</linearGradient>
	<path class="st0" d="M2231.583,326.846c-137.591,121.102-411.417,285.044-536.367,208.785
		c-123.277-75.517-154.908-88.203-310.278-204.477c-2.822-2.112-5.894-3.892-8.701-6.053
		c-157.702-121.414-133.966-46.993-182.943,26.316c-49.163,73.588-216.807,38.942-220.322-57.509
		c-3.185-87.393,171.647-37.306,127.582-108.432c-4.258-6.874-8.892-14.276-13.829-22.715
		c-29.144-49.809-39.709-90.722-159.439-130.813C762.797-23.644,481.759-54.19,417.913-27.318
		C351.951,0.444,304.098,100.163,214.38,188.81c-48.163,47.588-83.769,87.234-93.598,95.897
		C96.608,306.015-63.999,409.278-121.181,356.79"/>
	<linearGradient id="SVGID_66_" gradientUnits="userSpaceOnUse" x1="-126.4636" y1="239.373" x2="2227.8152" y2="239.373">
		<stop  offset="0" style="stop-color:#E0A262"/>
		<stop  offset="1" style="stop-color:#CE6661"/>
	</linearGradient>
	<path class="st0" d="M2225.891,307.198c-137.686,120.895-410.933,284.616-535.739,208.327
		c-123.136-75.55-154.845-88.355-310.141-204.279c-2.822-2.107-5.895-3.88-8.702-6.035
		c-157.601-121.04-133.776-46.64-182.429,26.672c-48.803,73.538-216.389,38.923-220.141-57.388
		c-3.398-87.24,170.807-37.366,126.845-108.393c-4.254-6.873-8.874-14.272-13.787-22.704
		c-29.017-49.796-39.073-90.63-158.736-130.688c-164.34-55.529-445.638-85.995-509.384-59.065
		C347.824-18.536,300.409,81.031,210.735,169.602c-48.103,47.511-83.667,87.091-93.517,95.753
		c-24.22,21.297-184.53,124.298-241.71,71.887"/>
	<linearGradient id="SVGID_67_" gradientUnits="userSpaceOnUse" x1="-130.1007" y1="220.0043" x2="2221.7927" y2="220.0043">
		<stop  offset="0" style="stop-color:#E0A262"/>
		<stop  offset="1" style="stop-color:#CE6661"/>
	</linearGradient>
	<path class="st0" d="M2219.871,287.761c-137.78,120.687-410.449,284.189-535.11,207.868
		c-122.996-75.583-154.782-88.506-310.004-204.081c-2.823-2.102-5.896-3.868-8.702-6.018
		c-157.5-120.666-133.586-46.287-181.914,27.027c-48.443,73.487-215.972,38.904-219.96-57.267
		c-3.611-87.086,169.966-37.425,126.107-108.354c-4.249-6.872-8.856-14.268-13.745-22.694
		c-28.891-49.784-38.438-90.537-158.033-130.563C754.318-61.788,472.76-92.173,409.115-65.184
		C343.37-37.304,296.393,62.111,206.763,150.607c-48.042,47.434-83.566,86.949-93.437,95.608
		C89.06,267.501-70.952,370.24-128.131,317.906"/>
	<linearGradient id="SVGID_68_" gradientUnits="userSpaceOnUse" x1="-134.0613" y1="200.8449" x2="2215.4468" y2="200.8449">
		<stop  offset="0" style="stop-color:#E0A262"/>
		<stop  offset="1" style="stop-color:#CE6661"/>
	</linearGradient>
	<path class="st0" d="M2213.527,268.534c-137.874,120.48-409.965,283.762-534.482,207.409
		c-122.855-75.616-154.72-88.658-309.867-203.883c-2.823-2.097-5.897-3.856-8.703-6.001c-157.4-120.293-133.396-45.934-181.4,27.382
		c-48.082,73.436-215.555,38.885-219.779-57.146c-3.824-86.932,169.126-37.485,125.37-108.315
		c-4.245-6.871-8.838-14.264-13.704-22.683c-28.764-49.771-37.802-90.445-157.329-130.437
		c-164.042-55.404-445.86-85.71-509.403-58.662C338.592-55.863,292.053,43.4,202.467,131.82
		c-47.981,47.357-83.464,86.806-93.356,95.464c-24.311,21.276-184.027,123.752-241.204,71.496"/>
	<linearGradient id="SVGID_69_" gradientUnits="userSpaceOnUse" x1="-138.342" y1="181.8928" x2="2208.7808" y2="181.8928">
		<stop  offset="0" style="stop-color:#E0A162"/>
		<stop  offset="1" style="stop-color:#CE6661"/>
	</linearGradient>
	<path class="st0" d="M2206.864,249.513c-137.968,120.273-409.482,283.335-533.854,206.951
		c-122.715-75.65-154.658-88.809-309.729-203.685c-2.823-2.091-5.898-3.844-8.704-5.983
		c-157.298-119.919-133.206-45.582-180.886,27.738c-47.722,73.385-215.137,38.867-219.598-57.025
		c-4.036-86.778,168.285-37.544,124.632-108.276c-4.24-6.87-8.82-14.26-13.662-22.673C1036.425,36.8,1027.898-3.794,908.437-43.753
		c-163.893-55.341-445.971-85.567-509.413-58.46C333.494-74.215,287.393,24.896,197.852,113.241
		c-47.92,47.28-83.362,86.664-93.276,95.319c-24.357,21.265-183.775,123.479-240.952,71.3"/>
	<linearGradient id="SVGID_70_" gradientUnits="userSpaceOnUse" x1="-142.9393" y1="163.1456" x2="2201.7981" y2="163.1456">
		<stop  offset="0" style="stop-color:#E0A162"/>
		<stop  offset="1" style="stop-color:#CE6561"/>
	</linearGradient>
	<path class="st0" d="M2199.884,230.698c-138.063,120.065-408.998,282.907-533.225,206.492
		c-122.574-75.683-154.595-88.96-309.592-203.487c-2.824-2.086-5.899-3.832-8.705-5.966
		c-157.197-119.545-133.015-45.231-180.371,28.093c-47.362,73.333-214.72,38.848-219.416-56.904
		c-4.249-86.624,167.445-37.604,123.894-108.237c-4.235-6.869-8.802-14.256-13.62-22.663
		c-28.511-49.746-36.53-90.26-155.923-130.187c-163.744-55.278-446.082-85.424-509.423-58.259
		C328.08-92.362,282.416,6.597,192.919,94.866c-47.86,47.203-83.26,86.522-93.195,95.175
		C75.321,211.296-83.8,313.247-140.975,261.145"/>
	<linearGradient id="SVGID_71_" gradientUnits="userSpaceOnUse" x1="-147.8496" y1="144.6013" x2="2194.5024" y2="144.6013">
		<stop  offset="0" style="stop-color:#E0A162"/>
		<stop  offset="1" style="stop-color:#CE6561"/>
	</linearGradient>
	<path class="st0" d="M2192.591,212.086c-138.157,119.858-408.514,282.48-532.597,206.034
		c-122.434-75.716-154.533-89.111-309.455-203.289c-2.824-2.081-5.9-3.82-8.705-5.949
		c-157.096-119.172-132.825-44.88-179.857,28.449c-47.002,73.28-214.302,38.83-219.235-56.783
		c-4.462-86.47,166.605-37.664,123.157-108.198c-4.231-6.868-8.784-14.251-13.579-22.652
		c-28.385-49.734-35.894-90.168-155.22-130.062c-163.595-55.216-446.193-85.281-509.433-58.057
		C322.353-110.306,277.127-11.499,187.674,76.695c-47.799,47.126-83.159,86.379-93.115,95.03
		c-24.449,21.244-183.272,122.933-240.446,70.908"/>
	<linearGradient id="SVGID_72_" gradientUnits="userSpaceOnUse" x1="-153.0694" y1="126.2577" x2="2186.897" y2="126.2577">
		<stop  offset="0" style="stop-color:#E0A162"/>
		<stop  offset="1" style="stop-color:#CD6561"/>
	</linearGradient>
	<path class="st0" d="M2184.988,193.674c-138.251,119.651-408.03,282.053-531.969,205.575
		c-122.293-75.749-154.472-89.262-309.318-203.091c-2.824-2.076-5.901-3.808-8.706-5.931
		c-156.995-118.798-132.634-44.529-179.343,28.804c-46.641,73.227-213.884,38.811-219.054-56.662
		c-4.674-86.316,165.765-37.724,122.419-108.159c-4.226-6.867-8.766-14.247-13.537-22.642
		c-28.258-49.722-35.258-90.076-154.517-129.936c-163.446-55.153-446.304-85.138-509.442-57.855
		c-65.205,28.175-109.993,126.83-199.401,214.948c-47.738,47.049-83.057,86.237-93.034,94.885
		C64.59,174.843-93.936,276.27-151.108,224.322"/>
	<linearGradient id="SVGID_73_" gradientUnits="userSpaceOnUse" x1="-158.5953" y1="108.1126" x2="2178.9858" y2="108.1126">
		<stop  offset="0" style="stop-color:#E0A162"/>
		<stop  offset="1" style="stop-color:#CD6561"/>
	</linearGradient>
	<path class="st0" d="M2177.08,175.461c-138.345,119.443-407.547,281.626-531.341,205.116
		c-122.153-75.782-154.41-89.413-309.18-202.893c-2.825-2.071-5.901-3.796-8.707-5.914
		c-156.893-118.425-132.443-44.18-178.829,29.16c-46.281,73.174-213.466,38.793-218.873-56.541
		c-4.886-86.162,164.925-37.783,121.681-108.12c-4.221-6.866-8.748-14.243-13.495-22.631
		c-28.132-49.71-34.622-89.983-153.814-129.811c-163.297-55.09-446.414-84.995-509.452-57.654
		c-65.097,28.234-109.447,126.737-198.811,214.78c-47.677,46.972-82.955,86.094-92.954,94.741
		c-24.54,21.223-182.769,122.387-239.94,70.517"/>
	<linearGradient id="SVGID_74_" gradientUnits="userSpaceOnUse" x1="-164.4238" y1="90.1638" x2="2170.772" y2="90.1638">
		<stop  offset="0" style="stop-color:#DFA062"/>
		<stop  offset="1" style="stop-color:#CD6561"/>
	</linearGradient>
	<path class="st0" d="M2168.868,157.445c-138.44,119.236-407.063,281.198-530.713,204.658
		c-122.013-75.816-154.349-89.564-309.043-202.695c-2.825-2.066-5.902-3.784-8.708-5.897
		c-156.791-118.052-132.252-43.83-178.314,29.515c-45.921,73.12-213.048,38.775-218.692-56.421
		c-5.099-86.008,164.084-37.843,120.944-108.081c-4.217-6.865-8.73-14.239-13.454-22.621
		c-28.005-49.698-33.986-89.891-153.111-129.686c-163.148-55.027-446.525-84.852-509.462-57.452
		C303.327-162.942,259.415-64.591,170.095,23.376c-47.617,46.895-82.854,85.952-92.873,94.596
		c-24.586,21.212-182.518,122.114-239.687,70.321"/>
	<linearGradient id="SVGID_75_" gradientUnits="userSpaceOnUse" x1="-170.5512" y1="72.4093" x2="2162.259" y2="72.4093">
		<stop  offset="0" style="stop-color:#DFA062"/>
		<stop  offset="1" style="stop-color:#CD6561"/>
	</linearGradient>
	<path class="st0" d="M2160.358,139.622c-138.534,119.029-406.579,280.771-530.084,204.199
		c-121.872-75.849-154.287-89.714-308.906-202.497c-2.825-2.061-5.903-3.772-8.708-5.879
		c-156.689-117.678-132.061-43.481-177.8,29.87c-45.561,73.066-212.63,38.756-218.51-56.3
		c-5.311-85.853,163.245-37.903,120.206-108.041c-4.212-6.864-8.712-14.235-13.412-22.61
		c-27.879-49.686-33.35-89.798-152.408-129.561c-162.999-54.965-446.636-84.709-509.472-57.251
		C296.383-180.096,252.909-81.897,163.633,5.995c-47.556,46.819-82.752,85.809-92.793,94.452
		c-24.632,21.202-182.266,121.841-239.434,70.125"/>
	<linearGradient id="SVGID_76_" gradientUnits="userSpaceOnUse" x1="-176.9742" y1="54.8467" x2="2153.4507" y2="54.8467">
		<stop  offset="0" style="stop-color:#DFA062"/>
		<stop  offset="1" style="stop-color:#CD6461"/>
	</linearGradient>
	<path class="st0" d="M2151.552,121.992c-138.628,118.821-406.095,280.344-529.456,203.74
		c-121.732-75.882-154.226-89.865-308.769-202.299c-2.826-2.056-5.904-3.76-8.709-5.862
		c-156.587-117.305-131.869-43.133-177.286,30.226c-45.201,73.011-212.212,38.738-218.329-56.179
		c-5.523-85.699,162.404-37.963,119.468-108.002c-4.207-6.863-8.694-14.231-13.37-22.6
		c-27.752-49.674-32.714-89.706-151.705-129.435c-162.85-54.902-446.747-84.566-509.482-57.049
		c-64.772,28.411-107.809,126.458-197.04,214.274c-47.495,46.742-82.65,85.667-92.712,94.307
		c-24.678,21.191-182.015,121.568-239.182,69.929"/>
	<linearGradient id="SVGID_77_" gradientUnits="userSpaceOnUse" x1="-183.6892" y1="37.474" x2="2144.3501" y2="37.474">
		<stop  offset="0" style="stop-color:#DFA062"/>
		<stop  offset="1" style="stop-color:#CD6461"/>
	</linearGradient>
	<path class="st0" d="M2142.455,104.552c-138.722,118.614-405.612,279.917-528.828,203.282
		c-121.591-75.915-154.165-90.015-308.631-202.101c-2.826-2.051-5.905-3.748-8.71-5.845
		c-156.484-116.932-131.678-42.785-176.772,30.581c-44.841,72.955-211.794,38.72-218.148-56.058
		c-5.735-85.545,161.564-38.023,118.731-107.963c-4.203-6.862-8.676-14.227-13.328-22.59
		c-27.626-49.662-32.078-89.614-151.002-129.31c-162.701-54.839-446.858-84.423-509.491-56.848
		c-64.664,28.47-107.263,126.365-196.45,214.105C102.391,18.471,67.277,57.33,57.193,65.969
		C32.47,87.149-124.57,187.264-181.736,135.702"/>
	<linearGradient id="SVGID_78_" gradientUnits="userSpaceOnUse" x1="-190.6927" y1="20.2889" x2="2134.9612" y2="20.2889">
		<stop  offset="0" style="stop-color:#DFA062"/>
		<stop  offset="1" style="stop-color:#CD6461"/>
	</linearGradient>
	<path class="st0" d="M2133.068,87.299c-138.816,118.407-405.128,279.49-528.199,202.823
		c-121.451-75.948-154.104-90.166-308.494-201.903c-2.826-2.046-5.906-3.737-8.711-5.827
		c-156.382-116.559-131.486-42.438-176.257,30.937c-44.481,72.899-211.376,38.702-217.967-55.937
		c-5.947-85.39,160.725-38.083,117.993-107.924c-4.198-6.861-8.659-14.223-13.287-22.579
		c-27.499-49.65-31.442-89.521-150.299-129.185c-162.552-54.776-446.969-84.28-509.501-56.646
		C273.79-230.414,231.63-132.671,142.487-45.006C95.113,1.582,60.04,40.376,49.935,49.012
		c-24.769,21.17-181.512,121.023-238.676,69.537"/>
	<linearGradient id="SVGID_79_" gradientUnits="userSpaceOnUse" x1="-197.9813" y1="3.2893" x2="2125.2871" y2="3.2893">
		<stop  offset="0" style="stop-color:#DFA062"/>
		<stop  offset="1" style="stop-color:#CD6461"/>
	</linearGradient>
	<path class="st0" d="M2123.397,70.231c-138.911,118.199-404.644,279.062-527.571,202.364
		c-121.31-75.982-154.043-90.316-308.357-201.705c-2.827-2.04-5.907-3.725-8.712-5.81
		c-156.279-116.186-131.294-42.092-175.743,31.292c-44.121,72.843-210.958,38.684-217.786-55.816
		c-6.159-85.236,159.885-38.143,117.256-107.885c-4.193-6.86-8.641-14.219-13.245-22.569
		c-27.373-49.638-30.806-89.429-149.596-129.06c-162.403-54.714-447.08-84.137-509.511-56.444
		c-64.448,28.588-106.171,126.179-195.27,213.768C87.551-15.121,52.518,23.607,42.392,32.241
		c-24.815,21.16-181.261,120.75-238.423,69.342"/>
	<linearGradient id="SVGID_80_" gradientUnits="userSpaceOnUse" x1="-205.5513" y1="-13.5269" x2="2115.3318" y2="-13.5269">
		<stop  offset="0" style="stop-color:#DF9F62"/>
		<stop  offset="1" style="stop-color:#CD6461"/>
	</linearGradient>
	<path class="st0" d="M2113.444,53.348c-139.005,117.992-404.16,278.635-526.943,201.906
		c-121.17-76.015-153.983-90.466-308.22-201.507c-2.827-2.035-5.907-3.713-8.712-5.793
		C1113.393-67.86,1138.467,6.208,1094.341,79.601c-43.761,72.786-210.539,38.667-217.605-55.695
		c-6.371-85.081,159.045-38.203,116.518-107.846c-4.188-6.859-8.623-14.215-13.203-22.558
		c-27.246-49.627-30.171-89.336-148.892-128.934c-162.254-54.651-447.191-83.994-509.521-56.243
		c-64.34,28.647-105.625,126.086-194.68,213.6C79.706-31.641,44.715,7.022,34.568,15.654C9.707,36.803-146.441,136.13-203.602,84.8"
		/>
	<linearGradient id="SVGID_81_" gradientUnits="userSpaceOnUse" x1="-213.3994" y1="-30.1619" x2="2105.0981" y2="-30.1619">
		<stop  offset="0" style="stop-color:#DF9F62"/>
		<stop  offset="1" style="stop-color:#CD6461"/>
	</linearGradient>
	<path class="st0" d="M2103.213,36.645c-139.099,117.785-403.676,278.208-526.314,201.447
		c-121.029-76.048-153.922-90.617-308.082-201.309c-2.827-2.03-5.908-3.701-8.713-5.775
		c-156.073-115.441-130.91-41.4-174.714,32.003c-43.401,72.729-210.121,38.649-217.423-55.574
		c-6.582-84.926,158.205-38.263,115.78-107.807c-4.184-6.858-8.605-14.211-13.162-22.548
		c-27.12-49.615-29.535-89.244-148.189-128.809c-162.104-54.588-447.301-83.852-509.53-56.041
		c-64.232,28.705-105.079,125.993-194.089,213.431C71.584-47.98,36.634-9.383,26.465-0.753
		C1.559,20.386-154.292,119.451-211.452,68.197"/>
	<linearGradient id="SVGID_82_" gradientUnits="userSpaceOnUse" x1="-221.522" y1="-46.618" x2="2094.5901" y2="-46.618">
		<stop  offset="0" style="stop-color:#DF9F62"/>
		<stop  offset="1" style="stop-color:#CD6361"/>
	</linearGradient>
	<path class="st0" d="M2092.708,20.121c-139.193,117.577-403.193,277.781-525.686,200.988
		c-120.889-76.081-153.862-90.767-307.945-201.111c-2.828-2.025-5.909-3.689-8.714-5.758
		c-155.97-115.068-130.718-41.055-174.2,32.359C1033.121,119.27,866.461,85.23,858.92-8.854
		c-6.794-84.771,157.365-38.323,115.043-107.768c-4.179-6.857-8.587-14.207-13.12-22.538
		c-26.993-49.604-28.899-89.152-147.486-128.684c-161.955-54.525-447.412-83.709-509.54-55.84
		c-64.124,28.764-104.533,125.9-193.499,213.263c-47.13,46.281-82.04,84.812-92.229,93.44
		C-6.864,4.148-162.418,102.951-219.576,51.774"/>
	<linearGradient id="SVGID_83_" gradientUnits="userSpaceOnUse" x1="-229.9155" y1="-62.8972" x2="2083.811" y2="-62.8972">
		<stop  offset="0" style="stop-color:#DF9F62"/>
		<stop  offset="1" style="stop-color:#CD6361"/>
	</linearGradient>
	<path class="st0" d="M2081.931,3.775c-139.288,117.37-402.709,277.353-525.058,200.53
		c-120.749-76.114-153.802-90.917-307.808-200.913c-2.828-2.02-5.91-3.677-8.714-5.741
		c-155.867-114.696-130.526-40.711-173.686,32.714c-42.682,72.612-209.283,38.614-217.061-55.332
		c-7.005-84.617,156.526-38.383,114.305-107.729c-4.174-6.856-8.569-14.203-13.078-22.527
		c-26.866-49.592-28.263-89.059-146.783-128.559c-161.806-54.463-447.523-83.566-509.55-55.638
		c-64.016,28.823-103.987,125.807-192.909,213.094C54.52-80.122,19.651-41.656,9.44-33.03
		C-15.558-11.913-170.814,86.628-227.971,35.528"/>
	<linearGradient id="SVGID_84_" gradientUnits="userSpaceOnUse" x1="-238.5765" y1="-79.0017" x2="2072.7646" y2="-79.0017">
		<stop  offset="0" style="stop-color:#DF9F62"/>
		<stop  offset="1" style="stop-color:#CD6361"/>
	</linearGradient>
	<path class="st0" d="M2070.888-12.398c-139.382,117.163-402.225,276.926-524.43,200.071
		c-120.608-76.148-153.742-91.066-307.67-200.715c-2.829-2.015-5.911-3.665-8.715-5.723
		c-155.763-114.323-130.334-40.367-173.172,33.069c-42.322,72.553-208.865,38.596-216.88-55.211
		c-7.217-84.462,155.686-38.443,113.567-107.69c-4.17-6.855-8.551-14.199-13.037-22.517c-26.74-49.581-27.627-88.967-146.08-128.433
		c-161.657-54.4-447.634-83.423-509.56-55.436C221.004-326.1,181.471-229.269,92.593-142.057
		C45.585-95.93,10.757-57.53,0.525-48.906C-24.519-27.799-179.478,70.479-236.634,19.457"/>
	<linearGradient id="SVGID_85_" gradientUnits="userSpaceOnUse" x1="-247.5016" y1="-94.9338" x2="2061.4541" y2="-94.9338">
		<stop  offset="0" style="stop-color:#DF9E62"/>
		<stop  offset="1" style="stop-color:#CC6361"/>
	</linearGradient>
	<path class="st0" d="M2059.58-28.397c-139.476,116.955-401.741,276.499-523.801,199.612
		c-120.468-76.181-153.682-91.216-307.533-200.517c-2.829-2.01-5.912-3.653-8.716-5.706
		c-155.66-113.951-130.141-40.024-172.657,33.425c-41.963,72.493-208.446,38.579-216.699-55.09
		c-7.428-84.307,154.847-38.504,112.83-107.651c-4.165-6.854-8.533-14.195-12.995-22.506
		c-26.613-49.57-26.991-88.874-145.377-128.308c-161.508-54.337-447.745-83.28-509.569-55.235
		c-63.799,28.941-102.894,125.621-191.728,212.757C36.386-111.566,1.599-73.231-8.655-64.609
		C-33.744-43.513-188.406,54.503-245.561,3.558"/>
	<linearGradient id="SVGID_86_" gradientUnits="userSpaceOnUse" x1="-256.687" y1="-110.6955" x2="2049.8831" y2="-110.6955">
		<stop  offset="0" style="stop-color:#DF9E62"/>
		<stop  offset="1" style="stop-color:#CC6360"/>
	</linearGradient>
	<path class="st0" d="M2048.011-44.226c-139.57,116.748-401.257,276.072-523.173,199.154
		c-120.327-76.214-153.623-91.366-307.396-200.319c-2.829-2.005-5.912-3.641-8.717-5.689
		c-155.556-113.579-129.949-39.681-172.143,33.78c-41.604,72.433-208.027,38.561-216.518-54.969
		c-7.639-84.152,154.007-38.564,112.092-107.611c-4.16-6.853-8.515-14.191-12.953-22.496
		c-26.487-49.558-26.355-88.782-144.674-128.183c-161.359-54.274-447.856-83.137-509.579-55.033
		c-63.691,29-102.348,125.528-191.138,212.588C26.926-127.031-7.82-88.761-18.095-80.142
		c-25.135,21.086-179.5,118.839-236.653,67.971"/>
	<linearGradient id="SVGID_87_" gradientUnits="userSpaceOnUse" x1="-266.1295" y1="-126.2891" x2="2038.0551" y2="-126.2891">
		<stop  offset="0" style="stop-color:#DF9E62"/>
		<stop  offset="1" style="stop-color:#CC6360"/>
	</linearGradient>
	<path class="st0" d="M2036.186-59.887c-139.665,116.541-400.774,275.644-522.545,198.695
		c-120.187-76.247-153.563-91.515-307.259-200.121c-2.83-2-5.913-3.629-8.718-5.671c-155.452-113.206-129.756-39.339-171.629,34.136
		C984.792,39.524,818.429,5.695,809.7-87.697c-7.85-83.997,153.168-38.624,111.355-107.572c-4.156-6.852-8.497-14.187-12.911-22.485
		c-26.36-49.547-25.719-88.69-143.971-128.058c-161.21-54.211-447.967-82.994-509.589-54.832
		C191-371.585,152.781-275.209,64.035-188.224c-46.826,45.897-81.531,84.1-91.827,92.717
		c-25.181,21.075-179.249,118.566-236.4,67.775"/>
	<linearGradient id="SVGID_88_" gradientUnits="userSpaceOnUse" x1="-275.8254" y1="-141.7167" x2="2025.9736" y2="-141.7167">
		<stop  offset="0" style="stop-color:#DF9E62"/>
		<stop  offset="1" style="stop-color:#CC6260"/>
	</linearGradient>
	<path class="st0" d="M2024.107-75.382c-139.759,116.333-400.29,275.217-521.916,198.237
		C1382.145,46.574,1348.687,31.19,1195.07-77.069c-2.83-1.994-5.914-3.617-8.718-5.654
		c-155.347-112.834-129.564-38.998-171.115,34.491C974.352,24.08,808.048-9.705,799.082-102.959
		C791.02-186.8,951.41-141.643,909.698-210.492c-4.151-6.851-8.479-14.183-12.87-22.475
		c-26.233-49.536-25.083-88.597-143.268-127.932c-161.061-54.149-448.078-82.852-509.599-54.63
		c-63.475,29.118-101.256,125.342-189.958,212.251c-46.765,45.82-81.429,83.958-91.746,92.573
		C-62.968-89.64-216.739,7.588-273.889-43.126"/>
	<linearGradient id="SVGID_89_" gradientUnits="userSpaceOnUse" x1="-285.7714" y1="-156.9804" x2="2013.6421" y2="-156.9804">
		<stop  offset="0" style="stop-color:#DE9E62"/>
		<stop  offset="1" style="stop-color:#CC6260"/>
	</linearGradient>
	<path class="st0" d="M2011.779-90.713c-139.853,116.126-399.806,274.79-521.288,197.778
		c-119.906-76.314-153.445-91.814-306.984-199.725c-2.83-1.989-5.915-3.605-8.719-5.637
		c-155.243-112.462-129.371-38.657-170.6,34.847c-40.526,72.25-206.77,38.51-215.974-54.606
		c-8.272-83.686,151.489-38.745,109.879-107.494c-4.146-6.851-8.461-14.179-12.828-22.465
		c-26.106-49.525-24.447-88.505-142.565-127.807c-160.912-54.086-448.188-82.709-509.609-54.428
		c-63.367,29.176-100.71,125.249-189.367,212.083c-46.704,45.743-81.327,83.815-91.666,92.428
		C-73.214-104.685-226.688-7.72-283.837-58.357"/>
	<linearGradient id="SVGID_90_" gradientUnits="userSpaceOnUse" x1="-295.9637" y1="-172.0825" x2="2001.0642" y2="-172.0825">
		<stop  offset="0" style="stop-color:#DE9E62"/>
		<stop  offset="1" style="stop-color:#CC6260"/>
	</linearGradient>
	<path class="st0" d="M1999.204-105.883c-139.947,115.919-399.322,274.363-520.66,197.319
		c-119.766-76.347-153.386-91.964-306.847-199.527c-2.831-1.984-5.916-3.593-8.72-5.619
		c-155.138-112.09-129.178-38.317-170.086,35.202c-40.167,72.187-206.35,38.493-215.793-54.485
		c-8.483-83.531,150.649-38.805,109.142-107.455c-4.141-6.85-8.442-14.175-12.786-22.454
		c-25.98-49.514-23.811-88.412-141.862-127.682c-160.763-54.023-448.299-82.566-509.618-54.227
		C158.715-415.576,121.81-319.655,33.196-232.897c-46.643,45.666-81.226,83.673-91.585,92.284
		c-25.318,21.044-178.495,117.747-235.642,67.188"/>
	<linearGradient id="SVGID_91_" gradientUnits="userSpaceOnUse" x1="-306.399" y1="-187.0251" x2="1988.2434" y2="-187.0251">
		<stop  offset="0" style="stop-color:#DE9D62"/>
		<stop  offset="1" style="stop-color:#CC6260"/>
	</linearGradient>
	<path class="st0" d="M1986.385-120.892C1846.344-5.181,1587.547,153.043,1466.354,75.968
		c-119.625-76.38-153.327-92.113-306.71-199.329c-2.831-1.979-5.917-3.581-8.721-5.602
		C995.89-240.682,1021.938-166.94,981.352-93.406C941.544-21.281,775.421-54.93,765.74-147.77
		c-8.694-83.376,149.81-38.866,108.404-107.416c-4.137-6.849-8.424-14.171-12.745-22.444
		c-25.853-49.504-23.175-88.32-141.159-127.557c-160.614-53.96-448.41-82.423-509.628-54.025
		c-63.15,29.294-99.617,125.063-188.187,211.746c-46.582,45.589-81.124,83.531-91.505,92.139
		c-25.363,21.034-178.243,117.474-235.389,66.992"/>
	<linearGradient id="SVGID_92_" gradientUnits="userSpaceOnUse" x1="-317.0738" y1="-201.8105" x2="1975.1831" y2="-201.8105">
		<stop  offset="0" style="stop-color:#DE9D62"/>
		<stop  offset="1" style="stop-color:#CC6260"/>
	</linearGradient>
	<path class="st0" d="M1973.328-135.745c-140.136,115.504-398.355,273.508-519.403,196.402
		c-119.484-76.413-153.268-92.262-306.572-199.131c-2.832-1.974-5.917-3.569-8.721-5.584
		c-154.929-111.347-128.792-37.638-169.057,35.913c-39.45,72.061-205.511,38.459-215.43-54.243
		c-8.905-83.221,148.971-38.926,107.666-107.377c-4.132-6.848-8.406-14.167-12.703-22.433
		c-25.726-49.493-22.539-88.228-140.456-127.431c-160.465-53.898-448.521-82.28-509.638-53.824
		c-63.042,29.353-99.071,124.97-187.597,211.577c-46.521,45.513-81.022,83.388-91.424,91.995
		C-105.417-148.859-258-52.681-315.144-103.087"/>
	<linearGradient id="SVGID_93_" gradientUnits="userSpaceOnUse" x1="-327.9845" y1="-216.4406" x2="1961.8868" y2="-216.4406">
		<stop  offset="0" style="stop-color:#DE9D62"/>
		<stop  offset="1" style="stop-color:#CC6260"/>
	</linearGradient>
	<path class="st0" d="M1960.034-150.442c-140.23,115.297-397.871,273.081-518.775,195.943
		c-119.344-76.447-153.21-92.411-306.435-198.933c-2.832-1.969-5.918-3.557-8.722-5.567
		c-154.823-110.975-128.599-37.299-168.543,36.268c-39.091,71.997-205.092,38.442-215.249-54.122
		c-9.115-83.065,148.132-38.987,106.929-107.338c-4.127-6.847-8.388-14.164-12.661-22.423
		c-25.599-49.482-21.904-88.135-139.752-127.306c-160.316-53.835-448.632-82.137-509.648-53.622
		C124.243-458.131,88.652-362.665,0.171-276.134c-46.46,45.436-80.92,83.246-91.344,91.85
		c-25.455,21.013-177.74,116.928-234.883,66.6"/>
	<linearGradient id="SVGID_94_" gradientUnits="userSpaceOnUse" x1="-339.1276" y1="-230.9178" x2="1948.358" y2="-230.9178">
		<stop  offset="0" style="stop-color:#DE9D62"/>
		<stop  offset="1" style="stop-color:#CC6260"/>
	</linearGradient>
	<path class="st0" d="M1946.508-164.987c-140.324,115.089-397.387,272.654-518.147,195.485
		c-119.204-76.48-153.151-92.56-306.298-198.735c-2.832-1.964-5.919-3.545-8.723-5.55
		c-154.718-110.604-128.406-36.962-168.029,36.624c-38.733,71.933-204.672,38.425-215.068-54.001
		c-9.326-82.91,147.293-39.048,106.191-107.299c-4.123-6.846-8.37-14.16-12.62-22.413c-25.473-49.472-21.268-88.043-139.049-127.181
		c-160.167-53.772-448.743-81.995-509.657-53.421c-62.826,29.471-97.979,124.785-186.416,211.24
		c-46.399,45.359-80.819,83.103-91.263,91.706c-25.5,21.002-177.489,116.655-234.63,66.404"/>
	<linearGradient id="SVGID_95_" gradientUnits="userSpaceOnUse" x1="-350.4997" y1="-245.2441" x2="1934.6005" y2="-245.2441">
		<stop  offset="0" style="stop-color:#DE9D62"/>
		<stop  offset="1" style="stop-color:#CC6160"/>
	</linearGradient>
	<path class="st0" d="M1932.753-179.38C1792.335-64.498,1535.85,92.846,1415.235,15.646
		c-119.063-76.513-153.093-92.708-306.161-198.537c-2.833-1.959-5.92-3.534-8.724-5.532
		c-154.613-110.232-128.213-36.624-167.515,36.979c-38.374,71.868-204.252,38.409-214.887-53.88
		c-9.536-82.754,146.453-39.108,105.453-107.26c-4.118-6.845-8.352-14.156-12.578-22.402
		c-25.346-49.461-20.632-87.95-138.346-127.056c-160.018-53.709-448.854-81.852-509.667-53.219
		C100.093-485.732,65.379-390.57-23.015-304.19c-46.338,45.283-80.717,82.961-91.183,91.561
		c-25.546,20.992-177.237,116.382-234.378,66.208"/>
	<linearGradient id="SVGID_96_" gradientUnits="userSpaceOnUse" x1="-362.0972" y1="-259.4218" x2="1920.6173" y2="-259.4218">
		<stop  offset="0" style="stop-color:#DE9C62"/>
		<stop  offset="1" style="stop-color:#CC6160"/>
	</linearGradient>
	<path class="st0" d="M1918.773-193.625C1778.26-78.95,1522.353,78.174,1401.883,0.942
		c-118.923-76.546-153.035-92.857-306.023-198.339c-2.833-1.953-5.921-3.522-8.724-5.515c-154.507-109.861-128.02-36.288-167,37.335
		c-38.016,71.802-203.832,38.392-214.706-53.759c-9.746-82.599,145.614-39.169,104.716-107.221
		c-4.113-6.844-8.334-14.152-12.536-22.392c-25.219-49.451-19.996-87.858-137.643-126.93
		c-159.869-53.647-448.964-81.709-509.677-53.017c-62.61,29.588-96.886,124.599-185.236,210.903
		c-46.277,45.206-80.615,82.819-91.102,91.417c-25.592,20.982-176.986,116.109-234.125,66.013"/>
	<linearGradient id="SVGID_97_" gradientUnits="userSpaceOnUse" x1="-373.9166" y1="-273.4531" x2="1906.4124" y2="-273.4531">
		<stop  offset="0" style="stop-color:#DE9C62"/>
		<stop  offset="1" style="stop-color:#CC6160"/>
	</linearGradient>
	<path class="st0" d="M1904.571-207.723C1763.964-93.256,1508.635,63.649,1388.309-13.614
		c-118.782-76.579-152.977-93.006-305.886-198.141c-2.833-1.948-5.921-3.51-8.725-5.498
		c-154.401-109.49-127.827-35.952-166.486,37.69c-37.658,71.736-203.412,38.375-214.525-53.638
		c-9.956-82.443,144.776-39.23,103.978-107.181c-4.109-6.843-8.316-14.148-12.495-22.381
		c-25.092-49.441-19.36-87.766-136.94-126.805c-159.72-53.584-449.075-81.566-509.687-52.816
		c-62.502,29.647-96.34,124.506-184.646,210.734c-46.216,45.129-80.513,82.676-91.022,91.272
		c-25.637,20.971-176.734,115.836-233.872,65.817"/>
</g>

</svg>
